<svg width="501" height="688" viewBox="0 0 501 688" fill="none" xmlns="http://www.w3.org/2000/svg">
<path fill-rule="evenodd" clip-rule="evenodd" d="M35.9082 251.519L37.1406 248.697L34.265 245.068L34.6758 239.826L32.2109 237.004L32.6217 233.778L40.8379 231.359L45.7676 228.94L45.3568 225.714L53.1622 226.118L54.3946 224.908L53.1622 222.892L51.1082 224.102L48.2325 222.489L53.573 219.667L59.7351 221.682L60.146 224.908L62.6108 225.714L65.0757 222.892L67.1297 224.505L66.7189 228.94L70.4162 230.553L79.454 225.714L79.0432 224.908L83.5621 226.521L86.0269 228.537L89.3134 228.134L92.1891 230.956L95.4755 229.746V233.778L95.8863 235.794L99.1728 237.407H101.227V239.826L100.405 241.842L95.8863 242.246L93.4215 244.262H95.0647L97.5296 246.681L93.8323 249.503L94.2431 251.519L94.6539 262.405L90.5458 265.228L89.7242 266.437L91.7783 270.469L95.0647 269.663L95.4755 272.082L96.2971 274.098L97.5296 275.308L92.1891 277.324L90.5458 278.936L92.5999 280.549L90.135 281.759L91.7783 282.968L90.135 284.178L94.6539 284.984L95.4755 286.597L92.1891 287.404L91.7783 289.016H87.6702L81.9188 286.597L78.2215 283.372L76.5783 282.565L73.7027 281.759V280.146L76.9891 279.34L77.3999 270.872L74.5243 264.825L71.2378 264.421L69.5946 266.841L63.4324 266.437L59.7351 264.421L56.8595 266.841L53.1622 264.825L49.4649 261.196L47.8217 261.599L47.4109 259.583L43.7136 258.777L39.6055 256.761L35.9082 251.519Z" fill="#CFCFCF" stroke="white"/>
<path fill-rule="evenodd" clip-rule="evenodd" d="M80.6867 39.0341L82.7407 37.0181L84.7948 37.4213L86.8488 39.0341L85.2056 43.4692L87.6705 44.2756L89.7245 46.6948L92.1894 46.2916L91.7785 43.4692L89.7245 42.2596L92.1894 39.4373L96.7083 39.8404L98.7623 42.6628L100.406 44.6788L101.638 46.6948L102.46 45.4852H106.157L106.978 46.2916L109.443 45.082V47.9044L109.854 52.7428L112.73 54.7587L115.605 56.3715L116.427 58.3875L116.016 60.8067L115.195 66.8547L116.427 70.8866L117.249 75.3218L120.535 78.1442L124.232 80.5634L127.108 82.9826L125.876 86.2081L124.643 89.0305L123.411 90.6433L120.946 87.8209L116.838 91.4497L117.249 95.8849L113.962 92.6593L111.908 96.6913L105.335 95.0785L100.816 96.2881L102.46 100.32L100.406 102.739L99.1731 104.755L95.4758 104.352L92.1894 101.53H90.1353V97.0945L86.8488 96.2881V86.6113L85.2056 84.5953L83.5624 81.773L79.0435 80.5634L79.4543 78.5474L78.2218 77.741V74.5154L77.811 73.3058L79.4543 71.2898L78.2218 73.3058L80.6867 69.677L83.1516 68.4674V61.6131L84.384 59.1939V57.5811L83.9732 51.9364L85.2056 49.5172L80.6867 44.6788V39.0341Z" fill="#CFCFCF" stroke="white"/>
<path fill-rule="evenodd" clip-rule="evenodd" d="M35.9084 21.6967L35.0868 18.8743L34.2651 16.8584L36.3192 14.036L37.9624 10.4072L39.6057 5.56884L42.8921 0.730469L43.7137 5.97203L44.1246 8.79442L47.411 12.02L50.6975 11.2136L51.5191 14.036L54.8056 14.8424L55.2164 17.2616L58.5029 18.4712L58.9137 20.0839L62.2001 20.8903L64.2542 18.4712L65.4866 21.6967L67.1299 23.7127L69.5947 25.3255L70.4163 26.9383L72.4704 26.1319L73.7028 27.3415L72.4704 30.1639L73.7028 31.3735L75.346 32.5831V33.3895L78.6325 32.9863V34.599L79.4541 36.2118H74.1136L74.5244 39.8406L70.8271 40.647L70.4163 42.2598L73.7028 41.8566L76.5785 40.647L79.4541 38.2278L81.5082 39.8406L81.0974 43.4694L82.7406 46.2918L84.7946 49.1142L83.973 51.9365V55.9685V59.5973L82.7406 62.8229L83.5622 66.8548L81.5082 69.6772L78.6325 73.7092L75.346 72.9028L70.8271 72.4996L69.1839 69.274L67.1299 67.6612L69.5947 63.2261L67.9515 60.0005L65.8974 57.5813L62.611 56.3717L60.9677 54.7589L59.7353 52.3397L57.6812 53.1461C57.6812 53.1461 57.1677 52.7429 56.038 52.3397C54.9083 51.9365 53.1624 51.5333 53.1624 51.5333L51.1083 50.7269L49.0543 52.3397L45.7678 51.5333L42.8921 50.3237L40.4273 51.9365L40.0165 53.9525C40.0165 53.9525 38.6813 53.7509 37.1408 53.1461C35.6003 52.5413 33.8543 51.5333 33.8543 51.5333L33.0327 50.3237L35.9084 48.711L37.5516 46.695L36.3192 44.2758V38.631L40.8381 38.2278L42.4813 36.615L44.1246 34.1959L47.8218 32.9863L48.6435 30.1639L50.6975 33.3895L52.7515 32.1799L54.3948 29.3575L52.7515 27.3415L51.1083 24.9223V22.0999L48.2326 19.6807L44.5354 20.4871L42.4813 17.2616L40.4273 18.8743L37.9624 18.4712L35.9084 21.6967Z" fill="#CFCFCF" stroke="white" stroke-linecap="round" stroke-linejoin="round"/>
<path fill-rule="evenodd" clip-rule="evenodd" d="M14.1356 98.7074L12.0816 95.0786L9.61671 91.853L11.2599 88.2242L7.15186 87.4179L8.38428 80.9667L11.2599 78.9507L10.8491 76.5315L12.4924 73.3059L17.4221 70.0804L19.0653 65.6452L15.368 63.6292L17.4221 60.0004L18.2437 56.3716L22.7626 54.7589V50.7269L28.9247 51.5333L33.4436 50.3237L39.6058 54.3557L40.8382 51.1301L45.0317 50.2656L48.6436 51.5333L51.93 51.1301L60.1462 53.1461L63.4327 56.7748L66.3084 57.9844L70.4165 62.8228L67.5408 66.8548L68.3624 69.6772L66.3084 71.6931L65.4867 74.9187H62.6111L60.557 71.6931L59.3246 74.1123H56.8598L55.6273 78.5475L57.2706 80.1603L55.2165 80.5635L52.7517 84.5955L51.93 87.0146L50.6976 89.4338L52.3409 91.4498L49.876 91.853H48.2328V89.837L42.8922 90.2402V93.4658H40.8382L40.4274 97.4978L42.8922 98.7074L41.249 100.32V103.949L43.3031 105.159L45.7679 107.175L45.3571 109.997L42.4814 110.4L40.0166 107.981L37.9625 106.771V105.159L35.0869 102.336H32.622L31.8004 99.5138L27.2815 97.0946L27.6923 95.0786L27.2815 93.869L23.5842 95.0786L21.1194 97.0946L19.0653 94.6754L14.1356 98.7074Z" fill="#CFCFCF" stroke="white"/>
<path fill-rule="evenodd" clip-rule="evenodd" d="M108.621 40.2436L107.389 37.018L104.103 39.4372L102.459 37.018L104.924 35.002L103.692 32.9861L101.638 32.5829L100.405 33.7925L96.2972 31.7765L95.4756 28.1477L99.5837 22.0997L103.281 20.8901V23.3093L104.513 24.1157L108.211 25.3253L110.676 27.7445L116.016 27.3413L117.248 30.1637L114.784 30.5669L116.838 32.9861L114.784 35.4052H119.713L121.357 38.2276L120.946 39.4372H118.481L116.016 37.018V40.6468L118.07 43.066L121.357 46.6948L121.767 49.114L120.535 50.3236L124.232 57.5811L130.805 58.7907L134.092 62.0163L134.502 64.4355L132.859 65.2419L133.27 66.0483L136.146 66.4515L139.432 68.0642L142.308 71.2898L147.648 72.4994L150.113 68.0642L151.756 68.4674L152.167 70.4834L154.221 71.2898L155.865 72.9026L157.508 71.693L156.686 79.3538L159.973 79.757L164.492 84.5953L165.313 84.1921V86.6113H169.01L169.421 87.8209L165.724 92.6593L163.67 93.0625L164.081 97.9008L159.562 101.126L158.329 100.723L157.919 97.0945L156.686 97.4977L155.865 99.5136L152.578 99.1105L150.113 98.304L149.702 99.1105L141.486 94.2721C141.486 94.2721 143.54 91.8529 141.486 91.4497C139.432 91.0465 137.378 89.8369 137.378 89.8369V87.0145L134.913 87.4177L131.216 84.5953L127.108 82.9825L124.643 80.1602L119.375 78.4511L116.838 74.5154L114.784 65.2419L116.016 59.1939V56.7747L109.443 52.7427L109.854 44.6788L113.14 43.4692L111.086 40.6468L108.621 40.2436Z" fill="#CFCFCF" stroke="white"/>
<path fill-rule="evenodd" clip-rule="evenodd" d="M68.3623 68.8706L66.3082 70.8866L65.4866 74.1122L62.6109 74.9186L60.1461 71.2898L59.3245 74.1122H56.4488L55.2164 78.5473L57.2704 79.7569V80.9665L54.8056 80.5633L51.1083 88.6273L52.3407 90.6433L51.5191 91.8529L48.2326 92.2561L47.8218 89.8369L46.5894 90.6433L42.0705 89.8369L42.8921 93.8689L40.8381 93.0625L40.4272 96.6912L42.4813 97.9008L41.2489 100.723L41.6597 103.546L45.7678 106.771V109.997L47.411 111.206L47.0002 114.835L45.357 115.642V118.867L47.8218 120.48H51.5191V123.705L54.3948 125.721L55.6272 128.544L60.5569 128.947L63.4325 128.141L64.2542 130.157L67.9514 130.56V132.173L73.7028 132.979L75.346 131.366L77.4001 130.157C77.4001 130.157 82.3298 132.173 81.0973 130.56C79.8649 128.947 79.8649 126.125 79.8649 126.125L82.3298 128.544L84.7946 126.125V130.157L86.8487 130.963L88.4919 134.592L86.8487 138.624L84.7946 139.833L87.2595 141.043L87.6703 144.269L93.0108 149.51L94.2432 147.494L95.4756 149.107V150.72L105.746 151.526L106.978 153.139L106.567 155.961L111.086 158.38L115.194 157.574L117.249 160.8L123 159.993L135.324 162.816L138.611 161.203V158.38L135.324 154.752L134.913 151.123L130.394 147.494L131.216 145.881L129.984 145.075H127.93L127.519 142.656H123.821L121.357 139.833L122.589 139.027L118.481 136.608L115.605 125.318L113.962 121.286L107.8 120.077L104.924 113.626L99.1729 109.997L98.3513 104.352L93.8324 103.142L92.1892 101.53L89.7243 101.126L90.9567 96.6912H86.8487L86.4378 87.0145L83.1514 81.3697L79.4541 80.5633L78.2217 77.3378V73.709L71.2379 72.4994L68.3623 68.8706Z" fill="#CFCFCF" stroke="white"/>
<path fill-rule="evenodd" clip-rule="evenodd" d="M135.324 154.348V151.123L129.984 147.494L131.216 145.478L127.93 144.672V143.059L123.821 142.656L120.535 139.833L122.589 139.43L117.248 136.608L113.962 121.689L107.389 120.077L104.513 113.626L99.5837 110.803L97.9404 104.352L102.049 100.32L100.816 96.2881L105.335 95.0785L112.319 96.2881L113.551 93.0625L117.659 96.2881L117.248 91.4497L121.357 87.4177L123 90.6433L127.93 83.3857L134.092 87.4177H136.967V90.2401L141.486 91.8529L143.129 95.4817L149.702 99.5136L150.524 97.9008L155.454 100.32L156.686 101.53L156.275 102.739L159.973 103.546L161.205 105.158L157.508 106.771L160.794 107.981L162.027 109.594V112.416L160.794 113.222V115.238L163.259 116.448L163.67 117.658L162.027 118.867L158.74 121.286L159.973 123.302L157.919 124.512L156.686 122.496L154.221 121.689L153.81 122.899L150.524 122.496L148.881 124.512L152.989 128.141L152.578 130.963L155.043 132.576L152.167 136.205L149.292 136.608L146.416 139.833L142.308 147.494V148.301L143.54 150.317L141.486 151.123L146.005 154.348H135.324Z" fill="#CFCFCF" stroke="white"/>
<path fill-rule="evenodd" clip-rule="evenodd" d="M161.615 112.013V109.191L157.918 105.965L161.615 105.562L159.151 103.143H156.275L155.042 99.514L157.918 97.0949V99.9172L159.972 101.53L163.669 98.3044L164.08 93.0629L169.421 88.6277L169.01 87.0149L165.313 86.6117V83.7893L163.669 84.9989L159.561 79.3542H156.275L157.507 72.0966H163.259L164.08 73.7094L163.669 75.7254L166.134 78.1446L166.956 76.5318L169.01 75.7254V73.7094L166.956 73.3062L166.545 69.6774L171.064 66.4519H174.761V64.4359L173.529 63.6295L173.118 60.4039L171.886 60.8071L171.064 62.4199L170.242 63.6295L168.599 62.8231L170.242 60.0007L169.421 58.3879L168.599 56.7751V54.7591H170.242L172.707 51.9368L173.529 49.9208L173.118 47.5016L174.351 46.292H178.048L180.513 48.308L178.869 49.9208L178.459 51.9368L178.048 52.7432L179.28 55.1623L180.923 53.9527H185.442L186.675 57.5815L190.783 64.4359L189.14 65.2423V67.6615L191.604 68.4678L193.659 74.5158H197.767L193.659 78.1446L197.767 79.3542L200.642 80.5638V81.7734L198.588 83.7893L194.891 87.0149L195.302 91.4501L193.248 94.2725L194.891 97.0949L196.534 99.9172L194.069 102.336V104.756L196.123 105.159L195.302 108.384L198.999 111.207V121.69L196.945 125.722L196.534 132.173L195.713 135.802L194.48 137.011L194.069 141.447L192.015 140.237L189.14 138.624V141.043L190.783 142.253L187.086 145.075L185.442 144.672V143.059L184.621 143.866L181.334 143.463V141.447L182.978 140.64L181.334 140.237V138.221L182.567 134.995L177.637 133.786L180.513 132.576L178.869 130.157V128.544L175.172 125.319H172.296L171.475 127.335L170.242 124.109L165.313 121.69L163.669 117.255L161.615 115.239V112.013Z" fill="#CFCFCF" stroke="white"/>
<path fill-rule="evenodd" clip-rule="evenodd" d="M127.93 160.8L134.913 163.219L138.2 161.606L139.021 158.784L135.735 154.349L145.184 154.752L141.486 151.123L144.362 150.72L142.308 147.494L148.059 138.624L150.113 136.205L152.167 137.011L155.454 132.576L152.578 130.963L152.989 127.335L149.292 124.512L150.524 122.496L153.81 121.287L157.097 122.093L157.508 125.319L160.794 123.706L158.74 120.883L163.67 118.061L166.956 122.496L169.832 124.512L171.475 128.141L172.708 125.722H175.173L178.459 128.544V130.157L180.513 132.173L176.405 134.189L182.567 135.399L181.335 136.608V140.237L182.156 141.043L180.924 141.446V143.462L184.21 143.866L185.854 142.253V144.269L187.086 145.075V151.526L189.14 155.962L189.551 158.784L186.675 162.816L184.621 162.413L181.746 164.832L181.335 168.461L178.459 172.493L175.994 175.315V177.331L177.227 179.347L178.87 179.75L176.816 180.96L175.994 183.379L175.173 181.766L170.654 181.363L166.956 182.573L166.135 184.589H164.081L163.259 182.976L157.097 181.766L155.454 179.75L154.221 179.347L152.989 180.96L150.935 179.75L149.702 179.347L148.881 180.96L145.594 180.557L144.362 176.525H142.719L141.486 175.315L136.967 174.912L135.324 176.928L132.859 174.912V173.702L129.573 169.267H128.34L126.697 167.251L125.875 165.235L127.93 160.8Z" fill="#CFCFCF" stroke="white"/>
<path fill-rule="evenodd" clip-rule="evenodd" d="M106.978 201.523L106.567 194.265L107.389 193.459L107.8 184.588L105.335 182.169H103.281L102.459 183.782H100.816L99.1729 180.556V178.54L100.405 178.137L100.816 172.089L98.3512 171.686L99.5837 170.88L97.9404 167.654L99.9945 165.638L99.5837 162.816L100.405 157.171L105.335 155.558L106.978 155.961L110.676 158.784L115.194 157.977L117.248 160.8L123 159.993L127.519 161.606L125.875 164.832L127.93 168.057L129.984 169.67L132.859 173.702L132.448 174.912L136.146 177.331V178.944L133.681 180.96L132.038 181.766L133.681 184.185L131.216 184.992L132.038 186.604L129.573 185.395L127.519 191.04H125.875V194.265L127.108 195.475L126.697 197.087L124.643 196.684V195.475H120.124L119.713 192.652L116.838 191.443L116.427 197.087H115.194L115.605 198.7L118.07 200.313V201.523L114.373 203.942L113.14 204.748L111.086 203.135L109.032 205.555V203.942H106.978V205.555L106.157 204.345H103.281V201.926L106.978 201.523Z" fill="#CFCFCF" stroke="white"/>
<path fill-rule="evenodd" clip-rule="evenodd" d="M102.87 204.748V201.926L106.978 201.523L106.157 194.265L107.8 193.862L107.389 185.395L104.924 181.363H104.103L102.459 183.379L100.405 183.782L98.3513 180.153V178.54H99.9946L101.227 172.089H96.7081L99.1729 171.283L96.7081 168.057L98.3513 166.041L95.0649 165.638H93.4216L88.0811 162.412L86.8487 165.235L83.973 167.251H83.1514L81.0974 164.832L79.0433 166.041L74.1136 163.219L71.2379 162.412L70.4163 164.025L62.6109 163.622L60.5569 167.654H58.5028V165.235L57.2704 164.025L56.038 165.638L54.3948 163.622H51.9299L49.8759 162.009L49.0542 163.622L46.1786 164.832L45.7678 168.057L49.0542 169.67V170.88L46.1786 172.089V177.734L47.0002 178.944L44.9461 178.54L44.5353 182.169L46.5894 183.782L44.9461 185.798L42.8921 187.008V189.427L40.8381 189.83V191.443H43.7137L46.1786 193.862L46.5894 198.297H47.8218V196.684L48.2326 195.071H49.8759L52.7515 197.894V199.507L49.8759 204.345L47.8218 205.151L44.5353 205.555L44.1245 206.764L40.4272 205.958L39.1948 208.377L42.0705 209.99L43.7137 209.183H48.6434L47.0002 211.603L49.0542 212.409L53.1623 212.812L54.3948 215.231L52.3407 215.635L50.2867 214.828H48.6434L48.2326 216.038L51.1083 216.844L53.5731 218.054L53.984 219.263L56.038 220.473L60.5569 221.683V224.505L62.6109 225.311L65.0758 222.086L67.1298 224.908L66.719 229.343L68.3623 230.956L68.7731 230.15H70.8271L73.292 228.94L79.0433 224.908H80.6865L81.0974 226.521L83.973 226.118L86.0271 228.537L86.8487 227.731H89.7243L92.1892 230.553L92.6 229.746L95.0649 229.343L96.2973 230.956V234.988L98.3513 236.601L100.405 237.004L104.924 237.407V239.826L105.746 240.633H107.389L107.8 239.423V241.036H110.265L111.086 243.455L112.73 241.439L113.962 241.842L116.838 239.423V235.391L115.605 234.585V231.762L118.892 226.924L120.124 224.908L119.713 221.279L120.535 218.054L118.481 219.667L113.962 220.07L114.373 216.441L111.497 211.603H110.676L107.389 214.828L106.157 214.425L102.459 217.651L102.049 208.78L100.405 207.974L102.87 204.748Z" fill="#CFCFCF" stroke="white"/>
<path fill-rule="evenodd" clip-rule="evenodd" d="M53.5733 218.86L51.1084 216.844L48.2328 216.038L48.6436 214.425L54.3949 215.635L53.1625 213.216H49.4652L45.7679 211.603L47.822 209.184L44.1247 208.377L42.4815 209.99L39.195 208.377L40.0166 205.555L43.3031 206.764L44.1247 205.152L48.6436 205.555L49.876 203.942L53.1625 198.7L49.0544 194.668L47.822 198.297L45.3571 198.7L46.1787 194.668L43.7139 191.846L41.249 191.443L40.0166 194.265L35.0869 193.862L34.2653 197.088H33.0328L32.622 198.7H35.4977V200.716L33.8545 203.136L33.0328 200.716L30.9788 202.732L30.1572 200.716L27.6923 199.104L26.4599 201.523L27.6923 197.491L23.5842 194.668L23.995 192.249L21.1194 191.846L20.7086 193.056H17.4221L14.1356 195.072L13.7248 197.088L15.7789 199.104L16.6005 204.748L9.20593 209.587L10.0275 212.812L7.56269 212.409L6.33026 213.619L5.91945 216.844L5.50864 219.667L5.09784 221.683L3.04379 221.279L0.989746 222.489L2.22217 223.699L4.27622 225.311L3.86541 226.924L8.38431 229.747L7.9735 232.166L10.4384 234.585L9.20593 238.214L10.8492 241.439L12.9032 243.859H15.7789L18.2437 246.278L19.887 248.294L22.7626 247.89L33.0328 251.116H37.1409V249.1H36.7301L34.6761 245.875V240.23L32.622 237.811V234.182L37.5517 231.763L40.8382 231.359L45.3571 228.537L44.9463 225.311H53.5733L54.3949 224.505L52.7517 223.295L51.1084 224.102L48.2328 222.489L53.5733 218.86Z" fill="#CFCFCF" stroke="white"/>
<path fill-rule="evenodd" clip-rule="evenodd" d="M102.459 216.845L102.049 208.377L100.405 207.168L103.692 204.345H106.157L107.389 207.168L107.8 204.345H109.032V206.765L111.908 203.136L113.962 205.152L118.892 201.12L114.784 197.088L116.838 197.894L117.248 191.846L119.713 193.056L120.124 195.475L124.643 195.878V197.491H127.929L127.519 195.072L125.465 193.862V191.443L127.519 191.846L129.984 185.395L132.859 187.008L131.627 184.589H134.502L132.448 181.766L136.556 179.347L136.967 176.525L135.324 176.122L136.967 174.509L141.486 175.315L144.362 176.928L145.183 180.557L148.881 181.363L149.702 179.347L153.4 181.363L154.632 178.944L157.919 182.17L162.848 182.976L164.902 184.992H166.546L167.778 182.17L174.762 181.363L175.994 183.379L177.227 183.782L175.994 187.008H177.637L178.459 189.83L176.816 192.249L178.459 193.459L177.637 195.475L179.281 197.894L179.691 200.717L177.637 201.12V204.749L180.924 208.377H183.799L185.032 210.393L184.21 211.603H178.459L177.637 212.813V215.232H176.816V218.054L172.708 223.699L169.832 220.877L167.778 222.086L166.135 220.473V222.489L164.491 224.102L164.081 227.328L165.724 228.134L164.902 230.15L165.313 230.956L167.778 230.553L170.243 232.569L168.6 234.585L171.475 236.198L169.832 238.214H167.367L166.956 239.827L164.491 239.02L162.848 236.601L162.437 238.617H159.973L158.74 237.004L155.454 238.617L152.578 239.02L149.292 237.004L141.075 237.408V235.392L139.021 232.569H137.789L135.324 230.15L132.038 229.747L130.394 230.956L131.216 234.182L130.805 235.392L126.286 231.763V230.15L127.929 228.94L127.108 226.924L124.643 228.94L123.411 227.731L121.357 232.166L118.481 226.521L120.535 224.102L120.124 218.054L118.07 220.07L113.962 219.667L114.373 217.651L110.676 211.603L107.8 214.829L106.567 213.216L102.459 216.845Z" fill="#CFCFCF" stroke="white"/>
<path fill-rule="evenodd" clip-rule="evenodd" d="M91.7783 289.017V287.001L95.8864 286.597L95.0648 284.582L89.7243 283.775L91.3675 282.162L89.7243 281.356L92.1891 280.146L90.5459 277.727L97.1189 275.308L95.0648 272.082V269.663L90.9567 270.066L89.3135 266.034L94.654 262.406L93.8324 249.503L97.9405 246.681L95.0648 243.859H92.5999L96.2972 241.439L100.405 242.246L102.049 239.02L101.638 237.407H104.513L104.103 239.423L106.567 241.439L109.854 241.843L112.73 242.246L116.427 239.827L116.838 235.391H115.194V231.763L118.481 227.731L121.357 232.569L123 228.537L124.643 229.344L127.108 226.924L128.34 228.537L125.875 231.359L130.805 234.988L131.216 233.375L129.573 231.359L131.627 229.344L135.324 230.15L137.789 232.166L140.254 234.182L141.486 237.004L142.719 238.214L135.735 247.487L131.627 252.326L134.092 253.535L134.913 255.955L136.967 257.164L137.378 264.825L134.092 268.05V270.066L132.038 269.663L128.34 276.921L125.465 278.534H123L121.767 281.356L118.07 284.178L110.676 285.791L109.032 284.178L107.8 283.775L106.157 286.597V289.42L101.227 289.017L97.1189 287.807L95.4756 289.823L91.7783 289.017Z" fill="#CFCFCF" stroke="white"/>
<path fill-rule="evenodd" clip-rule="evenodd" d="M136.967 263.615V257.567L134.913 255.954V254.342L132.038 251.922L143.129 238.617L142.308 237.004H149.702L152.578 239.423H155.454L159.151 237.407L162.437 239.02L163.259 236.198L164.902 239.423L167.778 240.23V238.214H169.832L171.886 236.601L168.6 234.585L170.243 232.972L167.367 230.553L164.902 230.956L164.081 230.553L166.135 228.537L164.081 227.327L165.313 222.892V220.07L167.367 222.086L169.832 221.279L172.297 223.698L177.637 218.054L176.816 215.635L177.637 211.603L182.567 212.006L184.21 214.022L185.443 215.231L186.264 213.619H187.497L189.551 215.635L190.783 216.038L191.194 218.457L188.729 218.86L188.318 220.07L190.783 222.086V228.134L189.962 231.359H187.497L189.551 233.778L189.962 236.601L187.908 237.81L187.497 240.23L185.854 239.826L183.8 242.246L185.854 245.068V248.294L182.978 250.31L181.745 252.326L187.497 258.373L185.032 260.793L185.443 262.405L188.318 264.421L190.372 267.647L189.551 279.34L190.783 280.953L189.551 282.162V283.775L190.783 284.178L192.427 285.791V287.001L193.659 288.21L193.248 293.049L190.372 298.693L185.032 300.709H182.156L178.87 296.677L173.94 293.049H170.243L164.902 288.613L160.794 287.807L160.383 285.791L162.437 284.985L162.848 282.162L161.205 281.356L162.437 280.549V278.937L160.794 276.921L159.562 277.727L155.865 278.533L154.632 277.727V274.905L156.275 274.098C156.275 274.098 156.275 271.679 154.632 271.679C152.989 271.679 152.578 271.679 152.578 271.679L151.346 273.695H150.524L149.702 271.276V268.05L146.005 265.631L142.719 264.825L136.967 263.615Z" fill="#EA4715" stroke="white"/>
<path fill-rule="evenodd" clip-rule="evenodd" d="M106.157 289.823V287L107.8 284.178L109.854 286.194L118.07 284.581L122.178 281.356L123 278.13L125.465 278.937L129.162 276.921L131.627 269.663L134.092 270.873L134.503 267.647L137.789 264.421L146.416 266.437L149.292 267.647V271.679L150.524 274.098L153.4 272.485L155.865 273.292L154.221 274.501V277.727L155.865 278.937H159.562L161.205 276.921L162.848 279.743L160.384 281.759H162.438V284.178L159.973 285.388L160.794 288.21L164.492 288.613L169.832 293.048L173.529 292.645L178.87 297.08L181.746 301.112L177.638 301.919V304.338L175.994 304.741L176.405 308.37L178.459 310.789L181.746 309.983L183.389 314.821H181.746L178.459 311.192L179.692 316.031L184.621 316.837L188.319 319.256L184.621 320.466L182.567 321.676L177.638 321.272L172.708 319.256L166.956 320.869L163.259 322.482L153.4 316.434L151.757 312.402L146.827 307.16H144.773L146.416 311.192L144.362 313.612L139.843 312.805L136.967 308.773L132.859 304.338L131.216 303.532H125.465L123 301.919H118.481L116.016 301.516L112.73 304.338V302.322L109.443 301.112L107.8 297.887L108.622 292.645L106.157 289.823Z" fill="#CFCFCF" stroke="white"/>
<path fill-rule="evenodd" clip-rule="evenodd" d="M72.4702 282.162H76.9891L81.0972 285.791L86.8485 289.016L91.3674 289.42L95.8863 290.226L97.5296 287.404L100.816 289.42H106.157L108.621 293.855L107.8 297.484L109.032 301.112L110.675 301.516L112.73 301.919V304.338L116.427 305.951L117.659 309.176L119.302 307.16L121.356 308.37L123.821 311.192L129.573 310.789L125.465 307.16L130.394 305.951L134.913 309.176L131.627 310.386L132.038 312.805L135.735 315.627L138.2 317.24L140.665 316.837L142.308 317.643L141.897 321.272L141.486 326.917L138.61 330.143L139.432 332.159H136.556L131.627 328.933L130.394 328.53L129.573 330.949H125.875L123.821 333.771L121.356 332.965L118.07 335.787L117.659 332.159H115.194L115.605 329.739L112.73 328.933L112.319 330.546L114.373 333.368L111.497 334.175L111.256 336.903L108.211 338.207V332.965L107.8 329.336L106.157 327.32L104.513 328.53L102.459 331.352L100.405 326.514L97.1188 325.707L99.1728 323.288L95.4755 322.482L92.5999 320.466L94.2431 318.853V317.24L91.7782 317.643L90.135 316.434L93.0107 314.821L91.7782 311.596L90.135 309.58L87.2593 311.192L86.0269 307.16L84.7945 305.548H83.5621V308.773L79.0432 303.935H81.508L83.1512 303.128L80.6864 300.709L78.6324 301.112L77.3999 301.919L76.9891 299.5L79.8648 298.693L76.1675 296.677L78.6324 295.468L73.7026 291.839L72.4702 282.162Z" fill="#CFCFCF" stroke="white"/>
<path fill-rule="evenodd" clip-rule="evenodd" d="M141.486 322.885V317.644L139.432 316.031L141.897 314.821L147.648 315.224L150.935 315.628L152.989 318.047V320.869L153.81 323.692L159.972 327.32L158.329 322.885L161.616 322.482L162.437 324.498L164.491 325.708L170.243 322.079L172.297 323.288L171.886 325.304L173.94 327.724V324.498L182.978 324.095L187.497 324.901L190.372 328.53L190.783 332.965L187.086 330.143L184.21 326.514H174.351L173.94 328.127H182.156L186.264 330.949L191.605 334.981L193.659 336.594L195.302 337.4L193.248 338.207L192.837 340.223H188.729L188.318 342.239L185.443 341.432V347.077L188.729 349.093L187.907 351.109H185.032L184.21 349.093L183.389 351.109L179.28 350.706L178.459 345.868L173.529 350.303H171.475L170.653 346.674H169.01L168.189 348.287L164.081 346.271L163.259 347.883L165.724 349.496L163.259 350.706L161.616 350.303V348.287L158.329 347.883L156.686 343.448L152.578 340.626L152.167 338.207L146.416 337.804L145.594 339.013L140.664 334.578L139.843 332.159L138.61 329.74L141.486 326.917V322.885Z" fill="#CFCFCF" stroke="white"/>
<path fill-rule="evenodd" clip-rule="evenodd" d="M78.6322 304.338L83.562 309.579L83.9728 305.547L86.4376 307.967V310.386L87.67 311.999L90.1349 309.579L93.0106 314.015L89.3133 316.434L91.7781 318.45L94.243 317.643L95.0646 319.256L92.1889 320.466V321.272L91.7781 323.691L89.7241 322.482L88.0809 324.901L88.4917 328.53L84.7944 328.933L84.8971 336.594L81.5079 340.122L78.3241 340.626L76.1674 342.238L74.5242 341.835L69.1836 346.27L68.362 347.48L62.4053 347.782L63.0215 343.448L60.1458 342.642L59.3242 341.029L61.3783 339.819L62.1999 336.997L60.1458 336.19L60.5566 331.755L62.6107 329.739L59.735 325.707L61.7891 326.514L64.2539 324.095V323.288L63.0215 322.079L63.4323 317.643L62.6107 316.837L65.0755 315.627L67.1296 316.434V318.853L68.5476 317.075L71.0323 316.938L75.3458 312.402L78.016 312.099L78.9404 309.68L78.2214 306.354L78.6322 304.338Z" fill="#CFCFCF" stroke="white"/>
<path fill-rule="evenodd" clip-rule="evenodd" d="M67.5405 347.48L74.5243 342.239L76.5783 342.642L78.2216 340.626L81.6533 339.889L84.504 336.545L84.7945 328.933L88.0561 328.481L87.2594 324.901L89.7242 322.885L91.7783 324.498L92.6248 320.845L94.6539 322.885L99.3928 323.288L96.708 325.708L99.9945 326.917L100.866 328.791L103.281 331.755L104.103 329.739L106.157 327.724L107.8 329.739L108.26 338.895L108.211 344.255L106.978 348.69L105.918 350.092L103.281 350.706V351.915L104.924 353.125L104.513 355.141L99.9945 354.334L97.5296 355.141L99.4528 355.603L100.816 358.366L100.405 364.011L98.3512 364.818L100.744 366.168L101.638 368.043L97.2142 371.436L93.4215 371.578L93.0107 375.301H90.135L87.7905 373.476L85.2053 374.494H81.508L80.2756 373.285V368.446L81.508 364.818L83.9729 365.624L83.6575 362.944L84.6244 360.549L83.5621 359.482L81.508 359.173L83.2965 360.904L80.2756 363.205L78.6324 361.592L79.0432 359.979L77.6157 358.676L74.5044 357.145L69.1838 353.125L70.4162 350.303L67.5405 347.48Z" fill="#CFCFCF" stroke="white"/>
<path fill-rule="evenodd" clip-rule="evenodd" d="M80.6862 373.688L85.6159 374.898L88.0808 373.285L89.724 375.301L93.0105 375.704L93.4213 371.269L96.297 371.672L101.637 368.446L101.227 366.43L97.9402 364.414L99.5835 363.608L100.405 357.963L99.1726 355.947L97.1186 354.738L99.5835 353.528L104.513 355.544L104.924 353.528L103.281 351.512L102.87 350.302H105.335L108.621 344.658L108.21 338.207L111.086 336.997L112.319 334.175H114.373V332.562L112.319 330.143L112.729 328.53L115.194 329.739V331.755L117.659 332.562L118.07 334.981H119.713L121.356 332.562L124.232 333.771L126.286 330.949H129.983L131.216 328.53L136.145 331.967L139.432 332.562L139.843 334.175L145.594 339.013L146.005 341.432L145.183 342.642H143.951L143.129 344.254L144.362 345.464L144.772 347.077L143.54 347.48V349.899L145.183 350.706L144.772 351.512H142.718L140.664 354.738L141.075 359.173L140.664 363.608L139.432 365.624L137.789 367.237L135.735 366.834L133.27 371.672L132.859 374.494L134.502 374.898L132.859 376.107V378.123L130.805 380.139L129.162 378.526L128.34 379.736L129.572 382.961L126.697 384.171L119.713 385.381L117.659 380.542H114.373L112.729 376.914L115.194 375.301L111.086 373.688L109.443 372.478L108.21 373.688L110.675 376.914H106.567L103.281 378.526L105.746 380.945L108.21 382.155L104.924 382.558L99.5835 380.945L98.351 381.349L100.816 382.961L99.5835 385.784L98.351 387.8L97.9402 389.816H90.9565L86.8484 387.8V390.622L82.7403 390.219L81.9187 388.203L78.6322 387.8L76.5781 386.59V384.574L74.1133 382.961V380.945L74.9349 379.333L78.2214 378.526L77.8106 376.51L80.6862 373.688Z" fill="#CFCFCF" stroke="white"/>
<path fill-rule="evenodd" clip-rule="evenodd" d="M134.913 375.301L132.859 374.091V372.075L135.735 367.237L137.789 367.64L141.076 363.608V358.77L140.665 354.738L141.897 351.512H144.773L145.594 350.303L143.54 349.9V347.077H144.773V345.464L143.13 343.852L143.54 342.239L145.594 343.045L146.416 341.432L146.005 339.013L146.416 337.804L151.757 338.207L152.578 340.223L156.686 343.448L157.919 347.48L159.562 349.496V352.319L161.205 354.335L162.848 355.141V356.754H160.794L159.151 357.964L159.562 359.173H165.724L169.011 361.189L169.832 364.012H171.065V368.447L173.94 372.882L174.762 375.301L171.065 372.882L169.421 374.495L171.475 375.301V380.543H166.546L164.492 384.171L162.438 384.978L159.562 381.349L157.919 382.155L155.454 385.381L153.811 386.187H152.989L150.935 383.768L149.703 384.171L147.238 381.349H146.827L146.005 382.155H143.951L141.897 380.543L141.486 378.123L139.022 378.527L134.913 375.301Z" fill="#CFCFCF" stroke="white"/>
<path fill-rule="evenodd" clip-rule="evenodd" d="M97.5296 389.01L100.816 383.365L97.5296 380.542H99.9945L104.103 382.558H108.621L103.281 378.526L105.335 376.914L111.086 377.317L108.211 374.091L109.443 372.075L110.265 373.688L115.194 375.301L113.14 376.914L114.373 380.139L118.07 380.542L119.713 385.381L124.643 384.574L129.984 383.365L128.34 380.139L128.751 378.526L130.805 380.139L133.27 378.123L132.448 375.704L134.092 374.898L139.432 378.526L141.486 378.123L141.897 380.139L144.362 382.558L146.416 382.962L147.648 381.349L149.702 384.171L153.4 385.381L152.167 387.397L154.221 388.606L152.989 389.816L153.4 394.654L152.167 396.267L152.989 399.896L149.292 400.299V401.509L151.346 402.315L151.756 403.928L150.524 404.331L150.935 407.153L154.632 404.734H155.865L155.454 408.766L157.919 409.573V410.379H161.616L162.437 411.589L161.616 414.411L164.081 418.443C164.081 418.443 166.135 421.265 164.492 421.265C162.848 421.265 162.027 421.265 162.027 421.265L159.151 420.459L157.919 419.249L155.865 414.411L154.632 413.201L151.756 415.217L152.578 418.04L150.113 421.669L144.773 424.088L144.362 426.104L146.005 428.12L145.594 433.361L145.184 434.974L140.665 432.958V430.942L139.021 430.539L138.611 431.748L134.913 434.974L132.448 434.571L128.751 436.587H126.286L123.411 434.571L123 434.974L121.357 433.764L120.946 431.748L123.411 431.345L120.535 427.716L123 428.12L123.411 426.91L121.767 424.088L118.481 422.072L118.07 424.491H111.703L109.032 422.475L106.978 421.265L108.621 425.096L106.978 426.708L100.816 425.902L99.1729 424.088L97.1188 425.297H95.4756L96.708 422.878L91.7783 420.862L92.5999 413.605L95.0648 412.798L93.8324 410.782V408.766L92.1891 407.557L95.4756 402.315L99.5837 400.702L99.1729 397.477L103.281 394.654L104.924 395.864L106.157 393.445L104.513 392.638L104.103 390.622L100.405 393.445L98.3513 392.235L97.5296 389.01Z" fill="#EA4715" stroke="white"/>
<path fill-rule="evenodd" clip-rule="evenodd" d="M153.4 389.01L151.346 386.187L154.632 385.784L157.919 382.559L159.151 381.349L161.616 384.978L164.492 383.768L166.546 380.946H171.065L172.297 384.171H175.583L175.994 384.978L173.119 388.203L174.351 390.623H178.87L180.924 393.042V394.654L179.692 396.67L180.924 397.074L183.8 395.058L187.086 395.461L186.675 398.283L185.443 401.106L183.8 404.331H181.746L178.459 403.525L183.8 407.96L185.443 410.379L187.086 414.411L191.605 417.233V419.249L190.373 419.653L186.675 420.459L177.227 416.83L173.94 420.459L168.6 417.637L166.956 420.056H165.724L161.205 414.814L162.848 412.395L161.616 409.976L157.508 409.573L155.454 407.557L156.275 404.331L154.632 403.928L150.935 407.557L151.757 404.331L151.346 401.912L148.881 401.106L153.4 400.299L152.578 396.67L154.221 395.058L153.4 389.01Z" fill="#CFCFCF" stroke="white"/>
<path fill-rule="evenodd" clip-rule="evenodd" d="M113.14 538.999L109.443 540.612L110.265 543.837L112.729 547.466L110.675 554.321L111.086 556.74L114.373 557.546L118.07 562.788L121.356 563.191L122.589 560.772L122.178 558.352L120.535 556.336L117.659 555.933L114.783 553.514L115.194 546.66L113.14 538.999ZM106.156 420.862L109.032 424.491L106.978 426.91L104.513 425.297L101.227 425.7L99.5835 424.088L95.8862 426.104L96.7079 429.329L99.1727 432.152L100.405 430.136L102.048 430.942L101.638 432.958L103.281 433.764L102.87 436.184L100.405 438.603L102.048 440.216L100.405 440.619L99.9943 444.248L97.5295 443.038L98.3511 446.667L101.638 451.102L97.9403 457.956L102.048 460.779L101.227 463.198L100.405 466.423L104.102 469.246L103.281 472.875L105.746 476.907L106.156 481.342L107.8 482.551L104.102 483.761L104.513 486.18L106.156 487.39L104.513 494.244L108.621 494.647L109.443 497.873L106.156 497.066V499.082L108.621 501.905L111.086 502.308V505.937L113.962 508.356L114.373 513.598L118.07 512.791L115.194 516.823H111.497L111.086 520.049L112.319 524.081L116.016 530.532L114.783 531.338L114.373 541.015L117.248 544.644L117.659 549.885L118.07 552.708L123 555.127L126.697 553.514L129.162 558.352L128.34 560.368L130.805 562.788L129.162 566.416L125.464 570.448L130.394 572.464L135.324 571.255L134.502 569.239H137.378L137.789 566.82L135.735 565.61L137.378 563.191V555.127L135.735 554.321L139.227 551.498L141.897 543.837L144.362 541.418L143.129 537.789L139.843 531.741L136.556 525.29L135.324 522.468L138.2 519.645H131.216L135.324 514.001L137.378 509.566L139.021 499.486L134.913 493.034V491.018L137.378 489.002L133.27 486.18L133.681 478.519L137.378 476.503L133.681 469.649L134.091 460.375L136.556 457.553L138.61 461.182L141.075 457.956L140.254 455.94L137.789 455.537L136.146 453.924L137.789 450.699L138.61 452.311L140.664 453.118L141.486 450.296L143.54 449.086L143.129 447.07L139.432 441.022L135.324 439.006L133.27 435.377L132.448 434.168L129.162 436.587L126.286 436.99L123.821 434.571L122.589 435.377L120.946 431.748L123.41 430.942L119.713 427.313L123 428.12L121.356 423.281L118.892 421.668L118.481 424.491H111.908L106.156 420.862Z" fill="#CFCFCF" stroke="white"/>
<path fill-rule="evenodd" clip-rule="evenodd" d="M139.021 555.933L138.2 563.191L142.719 566.013L143.951 561.578L139.021 555.933ZM142.924 449.691L141.486 450.295L140.87 453.319L138.816 452.311L137.994 450.094L135.735 453.723L137.378 455.537L140.048 455.739L141.075 458.158L138.611 461.383L136.557 457.956L133.886 460.375L133.681 469.044L137.584 476.705L133.681 478.721L133.27 486.18L137.173 489.204L134.913 490.615L134.708 492.833L139.021 499.687L137.173 509.364L131.421 519.645L138.2 519.444L135.529 522.266L142.719 537.386L144.362 541.418L147.032 542.224L147.238 544.845L142.924 545.652L139.638 551.095L141.486 552.708L142.719 556.336H144.567L145.184 559.562L146.416 563.594L151.551 563.997L154.632 559.36L156.275 558.352L157.919 555.328L157.097 553.514L156.07 551.095L152.167 548.676L155.248 547.063L160.794 541.418L161.205 536.983L161.41 531.943H163.054L165.929 521.46L166.135 513.194L164.286 505.533L169.832 500.09L171.064 497.47L172.913 497.066L175.378 493.034V487.994L171.681 477.31L169.627 476.302V471.463L166.751 465.415L165.929 458.561L167.573 454.731L170.859 451.505L172.913 444.449L174.556 443.038L175.994 444.046L179.075 441.022L180.513 438.2L179.897 434.974L178.664 433.764V431.144L182.978 430.942L185.648 428.724L187.291 420.257L177.843 417.032L173.735 420.66L169.01 417.838L166.956 420.459L164.902 421.668L160.178 421.064L158.329 419.854L155.043 413.604L151.962 414.814L152.989 418.04L149.908 421.668L144.773 424.088L144.156 425.7L145.8 427.515L145.389 435.377L140.665 433.16L141.075 431.144L139.227 430.337L139.021 431.748L135.324 434.974L132.654 434.571L135.529 439.409L139.638 441.224L142.719 446.465L142.924 449.691Z" fill="#CFCFCF" stroke="white"/>
<path fill-rule="evenodd" clip-rule="evenodd" d="M158.462 347.723L161.076 348.293L161.367 350.289L163.11 351.144L165.724 349.719L162.819 348.008L163.981 346.582L168.338 348.293L168.919 346.582L170.372 346.868L171.243 350.289L173.567 350.574L178.215 346.012L179.086 350.859L183.153 351.429L184.025 349.148L185.187 351.144L187.801 351.429L188.963 349.433L185.477 347.723V341.165L188.382 342.306L188.963 340.31H193.03L193.32 338.314H194.192L196.516 338.885L197.387 341.165L205.811 342.876L208.716 346.297H211.04L212.492 349.719L221.497 351.144L226.726 354.85L229.341 359.412L229.631 364.829H227.307L227.017 369.106L224.693 371.101L227.888 373.097L226.436 376.803L224.693 382.22L222.659 381.365L219.464 379.369L218.012 383.361L216.559 383.076L216.269 381.08H214.526L212.492 377.944L209.878 377.659L211.911 380.225L209.587 380.51L206.392 382.505L206.102 379.369H203.487L201.744 380.795L200.292 378.514L197.678 378.229L192.739 383.076L186.058 383.361L185.477 385.071L188.091 386.497L187.801 387.922L186.93 389.348L183.153 392.484H180.248L178.796 390.773H174.439L172.986 388.208L175.891 385.071L172.115 384.216L171.243 381.08V375.663L169.21 374.237L170.953 372.527L175.601 375.948L173.858 372.812L170.662 367.965L170.953 363.974H170.081L168.629 361.408L166.305 359.412L159.333 359.127L159.043 357.987L160.786 356.561H162.819L163.11 355.421L159.914 352.57L158.462 347.723Z" fill="#CFCFCF" stroke="white"/>
<path fill-rule="evenodd" clip-rule="evenodd" d="M191.577 419.284L191.868 417.573L187.801 415.292L185.768 410.161L179.958 404.458L184.025 404.744L186.349 399.041L186.93 395.905L184.025 394.765L180.539 397.331L179.958 396.761L180.829 394.195V392.769H182.572L187.801 389.348L188.382 386.782L185.477 385.071L186.058 383.076L191.577 383.361L197.097 378.799L199.711 379.084L201.744 380.795L203.487 379.369L205.521 379.654L206.102 382.791L208.716 381.08L211.911 380.795L210.169 377.659L211.911 377.944L214.235 381.365H215.688L216.559 383.646H217.721L218.883 387.922L217.431 392.769L213.654 394.765C213.654 394.765 214.816 397.331 213.654 397.331C212.492 397.331 209.878 397.331 209.878 397.331L208.135 403.603L211.621 405.599L213.073 403.033L215.107 401.893L218.883 404.173L220.336 405.599L223.531 402.748L227.307 404.744L225.855 405.884L225.564 408.735L229.341 409.875L227.888 410.446V414.152H224.693L223.531 416.718L220.045 418.143V420.709L218.883 420.994V422.42L216.559 424.131L215.397 428.692L214.235 430.403L213.945 431.543L211.04 432.114H206.973L206.392 435.25H205.521L202.325 433.254L197.678 433.539L193.611 431.258L193.03 429.262L195.644 426.982L191.287 424.131L191.577 419.284Z" fill="#CFCFCF" stroke="white"/>
<path fill-rule="evenodd" clip-rule="evenodd" d="M186.93 420.709L191.577 418.999L190.996 424.131L195.644 425.841L192.739 428.692L193.32 431.543L197.387 434.394L202.616 432.684L206.102 436.675L206.683 444.658L202.616 446.369L200.292 447.509L199.711 451.501H205.521L206.683 452.641V458.913L209.007 464.615L207.264 467.466L209.587 474.879L204.94 472.598L201.454 470.888L200.292 472.028L206.683 476.59V478.3H204.94L202.035 481.722V489.134L198.549 494.836L197.387 498.258L196.806 505.1L200.292 510.232L201.454 516.504L196.806 522.777L198.549 526.768L197.968 534.181L200.292 540.453V543.874H197.968V547.295L189.834 552.427L186.93 550.146L179.958 549.576L175.891 550.717L183.444 556.419L181.701 559.84H175.31L170.662 558.7L173.567 564.402L169.5 565.542L164.853 563.831L166.596 559.84L163.11 554.708V550.146L162.529 545.585L163.691 536.461L162.529 531.33L165.434 523.347L166.015 513.653L163.691 505.1L170.662 499.398L174.729 496.547L175.891 487.424L171.243 478.3L169.5 476.59V472.598L166.596 466.896L165.434 459.483L170.662 450.93L172.986 444.088H176.472L180.539 439.526V435.535L178.215 433.824V430.403L184.606 430.973L186.349 426.411L186.93 420.709Z" fill="#CFCFCF" stroke="white"/>
<path fill-rule="evenodd" clip-rule="evenodd" d="M175.994 175.315L181.745 169.267L181.335 165.638L184.21 162.413L187.086 162.816L189.551 159.59L189.14 155.558L187.086 151.929V145.075L191.194 142.253L189.14 141.043V138.221L193.659 141.446L192.426 147.897L194.891 150.317L194.48 153.542L197.356 155.558H200.232L202.286 152.736L205.983 153.542L208.448 153.139V159.187L207.626 159.993L205.161 158.381L203.929 164.025L201.464 166.445L202.697 169.267L205.983 168.864L205.572 170.88L203.929 172.896L203.518 176.121L207.215 178.944L206.805 181.363L203.929 182.976L204.34 184.588H202.286V186.604L204.34 190.636L204.751 193.056L207.215 192.652L209.27 195.072L208.448 197.491L211.324 198.7L220.772 201.12L221.594 203.942L226.934 199.507L234.74 203.136L234.329 207.974L230.632 212.006L227.756 211.603H221.183L217.486 212.409L211.324 219.667L209.27 216.844L208.448 215.635L205.572 214.425V216.844L202.286 218.86L200.643 217.651L199.41 220.07L200.643 222.489L203.107 224.102L202.286 225.715L201.053 225.311L199.41 228.94H197.356V231.763L194.891 232.569V237.004L192.837 237.811L189.551 237.407V233.779L187.086 231.763L190.372 231.359L191.605 222.892L188.318 219.263L190.783 218.86L191.194 216.038L187.497 213.619L185.853 213.215L185.032 214.828L182.567 212.006H183.799L184.621 209.99L184.21 207.974L181.335 208.377L178.048 204.748L177.637 201.523L179.691 201.12L179.28 197.491L177.637 195.475L178.048 193.459L176.405 191.846L178.048 190.233V186.604H175.172L177.637 183.782L175.583 182.572L176.816 179.75L175.994 175.315Z" fill="#CFCFCF" stroke="white"/>
<path fill-rule="evenodd" clip-rule="evenodd" d="M190.372 298.693L193.659 293.452L193.248 288.614L191.605 284.985L189.14 284.178V282.566L190.372 281.356L189.14 279.743L189.961 274.905L190.372 267.647L184.621 261.599L187.496 257.971L181.745 252.729L185.442 248.697L186.264 243.859L183.388 241.439L186.264 239.423L187.496 240.23L189.55 237.004L193.248 238.214L193.659 236.198L195.302 233.376L196.534 231.36L197.356 229.344L198.999 228.134L201.053 225.312L203.107 225.715V224.102L200.231 221.683L199.821 219.667L200.231 217.651L201.464 219.264L205.572 216.844L205.983 214.425L208.448 215.635L211.734 220.07L216.664 212.812L220.772 211.2L223.237 212.409L223.648 216.038H227.345V222.892L230.631 227.731V229.747L228.577 232.569L228.167 234.988L231.042 241.439L239.669 246.681L237.615 247.487L236.383 250.31L240.08 256.761L240.491 259.583L239.258 261.599L242.134 268.857L245.01 270.066L247.064 270.873L247.885 272.082L244.599 273.695V277.324L242.134 278.13L240.08 279.743L238.437 284.178L238.848 290.226L235.972 290.63L234.329 289.017L233.918 291.033H232.685L233.096 293.855L228.577 298.29L225.291 300.306H224.058L220.361 297.887L217.896 300.306H216.664L214.199 298.693V301.516L212.145 303.532L211.323 300.306L209.68 299.5L205.983 303.532L203.518 304.338L201.464 306.354L200.231 303.935L198.588 306.757H196.123L193.659 304.741L192.837 305.951L191.194 303.532L190.372 298.693Z" fill="#EA4715" stroke="white"/>
<path fill-rule="evenodd" clip-rule="evenodd" d="M189.962 299.097L183.389 301.113L179.281 301.516L179.692 305.548L183.389 309.983L188.319 314.418L188.729 316.837L190.373 318.853L189.962 322.885L194.481 328.933L199.41 332.159L204.34 333.368L206.394 335.788H201.875L205.162 339.013L207.216 337.804L209.27 341.836L216.664 343.852L219.129 341.836V337.4L224.47 336.594L228.167 334.981L237.616 336.594L235.151 329.74L239.259 325.304L231.043 323.692L228.167 320.063L226.113 315.628L223.237 314.015L221.183 308.773L217.075 306.757L220.362 303.935L212.556 303.532L211.735 300.306L209.681 299.5L205.573 303.532L204.34 302.725L201.464 305.951L200.232 303.935L198.589 307.564L196.124 306.757L194.07 305.145L192.837 306.757L191.194 304.338L189.962 299.097Z" fill="#CFCFCF" stroke="white"/>
<path fill-rule="evenodd" clip-rule="evenodd" d="M216.664 343.851L218.718 341.432V337.4L225.702 336.594L228.167 334.981L237.204 336.997L235.15 329.739L239.258 326.111L232.275 324.095L230.221 323.692L226.113 316.031L222.826 314.418L221.594 309.176L217.075 306.354L220.361 303.935L213.377 303.128L213.788 301.112V298.693L217.075 301.112L220.772 298.29L225.702 300.709L229.399 299.096L231.864 303.128L235.15 301.516L238.437 300.709L239.669 302.725L241.723 296.677L245.421 302.322L242.134 305.144L245.01 305.951L251.172 306.757L251.583 314.418L254.869 313.612L256.923 315.628H259.799L261.853 314.015H263.907L264.318 317.24V320.063L263.496 322.482L267.193 332.965L268.837 334.578L267.193 335.384L260.21 338.61L263.085 343.448L261.853 347.883L258.156 344.658L256.923 346.674L255.691 351.915L252.815 351.109L254.458 346.271L250.761 344.255L248.707 341.835L242.545 340.626L240.08 344.255L239.669 346.271L239.258 351.915L237.204 354.335L234.329 352.722L233.918 355.947L232.685 357.963L228.577 355.947L228.167 352.319L226.934 348.287L223.648 346.271L216.664 343.851Z" fill="#EA4715" stroke="white"/>
<path fill-rule="evenodd" clip-rule="evenodd" d="M227.345 364.415L232.686 364.818L235.972 367.64L239.67 369.253L247.886 371.672L246.242 374.494L240.491 383.768L235.151 387.397L236.383 394.654L241.313 398.283L243.778 403.928L247.886 406.75L243.367 412.798L246.653 415.621L247.886 418.04L245.832 419.653H241.313L236.383 418.443L236.794 413.201L237.205 408.363L235.151 407.557L233.918 409.573H228.578L225.291 407.557V405.944L227.345 405.137L223.648 402.718L220.362 405.541L216.253 402.315H213.789L211.324 405.541L207.626 403.121L210.091 397.073L215.021 397.477L214.199 395.058L217.897 393.042L219.129 387.8L217.075 384.171L219.129 380.139L224.88 382.558L226.934 374.091L225.291 370.866L227.345 369.253V364.415Z" fill="#CFCFCF" stroke="white"/>
<path fill-rule="evenodd" clip-rule="evenodd" d="M267.605 406.347L264.318 406.82L262.264 410.607L263.907 413.92L268.426 413.447L271.713 417.233L273.356 414.867L272.534 410.607L270.891 407.767L267.605 406.347ZM260.713 413.297L254.903 415.007L251.418 417.288L250.256 420.139L246.289 417.19L243.284 413.297L245.027 409.875L247.351 406.454L243.865 403.033L240.96 397.901L236.893 395.05L235.15 387.637L240.379 383.646L244.446 376.233L247.932 371.101L253.742 371.672L258.97 375.663L261.294 379.654H265.942H270.009L271.752 383.646L272.333 387.637L274.076 393.91L271.752 399.041L268.336 401.628L270.56 405.078L263.037 407.024L260.713 413.297Z" fill="#CFCFCF" stroke="white"/>
<path fill-rule="evenodd" clip-rule="evenodd" d="M226.523 299.903L233.096 294.258L232.275 291.032H233.918V288.613L236.383 291.032L238.848 290.629L238.437 283.775L239.669 279.34L245.421 276.921L244.599 273.292L248.296 271.679L247.064 270.469L249.529 269.663L252.404 269.26L253.637 266.841L256.102 269.663L258.567 269.26L260.21 270.469L261.442 263.615L265.55 263.212L266.783 264.825L271.712 266.841V268.857L274.999 272.082H278.696L279.518 270.873H282.804L287.323 273.695L289.788 274.905L287.323 276.517L287.734 280.146L289.377 283.372L288.145 286.194L287.734 288.613L290.199 291.032L285.68 291.839L284.037 290.226L282.804 291.436L284.448 292.242L285.269 299.903L283.215 304.741L281.161 305.144L282.394 307.16L279.929 311.192L276.642 313.611L274.588 311.999L270.48 307.16L270.069 309.176L267.604 308.773L264.318 315.627L262.264 314.015L260.621 315.224L257.334 316.031L254.869 313.611L251.583 314.418V306.354H245.831L242.545 305.144L245.421 301.919L243.367 298.693L242.134 298.29L239.669 302.725L238.437 300.306L235.15 301.919L232.275 303.532L226.523 299.903Z" fill="#CFCFCF" stroke="white"/>
<path fill-rule="evenodd" clip-rule="evenodd" d="M221.183 203.942L220.772 201.12L214.199 199.507L208.448 197.491L209.27 195.072L207.216 192.652L205.162 193.056L204.751 190.636L202.697 187.814L201.464 184.588L204.34 184.992V182.976L206.805 181.363L207.216 179.347L204.34 176.928L203.518 174.105L205.572 171.686L205.983 168.461L202.697 168.864L201.464 166.445L204.751 164.025L205.572 158.381L207.216 160.397L208.859 158.784V152.736L211.735 155.155L215.843 157.574L217.897 158.784L223.237 160.8L227.756 162.009L233.918 162.816L238.437 164.832H241.313L242.545 166.848V170.477L242.956 174.912L242.134 177.734L247.064 180.153L245.421 182.976L241.313 182.169L238.437 186.201L240.902 188.217L239.259 190.636L240.491 193.862L243.367 195.475L241.724 196.281L239.259 195.475L239.67 197.491L241.724 199.104L239.67 203.136L234.329 202.732L231.043 201.12L226.524 199.104L221.183 203.942Z" fill="#CFCFCF" stroke="white"/>
<path fill-rule="evenodd" clip-rule="evenodd" d="M245.831 270.469L242.134 268.857L238.848 262.002L240.491 260.389V256.357L236.383 250.31L237.204 247.487L240.08 246.681L233.918 243.455L231.453 241.036L228.167 235.391L228.577 232.972L231.042 230.15V228.134L227.345 222.892L227.756 216.038L224.059 215.635L222.826 212.409L226.934 211.603L230.632 212.409L234.329 207.974V203.942L236.383 202.732L239.259 203.539L242.134 199.91L239.259 197.894V195.475L241.723 196.281L244.188 195.878L240.902 194.265L239.259 190.636L240.902 188.217L238.848 186.201L241.723 182.169L245.831 183.782L247.475 180.556L244.188 179.347L242.545 177.331V175.315V167.251L242.134 165.638L244.188 165.235L246.242 166.848H249.94L251.172 169.267L259.799 170.88L263.907 169.267L268.837 167.251L274.177 168.057L276.231 166.848L279.518 168.46L282.394 166.041L284.448 167.251L283.626 169.267L281.572 174.912L281.161 178.137L279.107 179.75L282.394 183.379L281.983 185.798L279.107 186.201L277.464 188.62L276.642 191.846L274.999 192.249L273.356 187.814L272.123 189.427L269.658 188.62L268.426 189.427L271.712 191.846L272.534 195.071L271.712 197.491H272.534L274.588 201.523H277.464L277.053 205.958L279.107 207.571L277.875 209.183H280.75L283.626 211.603L287.734 212.409L289.377 211.199L293.075 212.409L292.253 214.828L290.199 214.425L291.02 217.247L292.664 218.054L293.485 218.86L291.431 221.279L291.02 225.311L294.307 228.134L297.183 229.746L298.004 234.988L300.469 233.375L300.88 234.988L304.166 237.004L304.988 238.617L302.523 242.649L299.647 245.471L296.772 244.262L295.129 241.439L292.664 246.278L291.02 243.052L288.556 247.487L285.269 247.89L282.394 245.471H278.696L277.464 248.697L281.161 251.519L285.269 253.938L284.858 259.18L282.804 260.793L282.394 264.421L284.448 268.857L285.68 271.276L282.804 270.469L279.107 272.082H274.999L271.712 269.663L272.123 267.244L266.372 265.228L265.961 263.615L261.853 263.212L260.21 269.663L258.567 268.857L256.512 269.663L254.048 266.841L252.815 269.26L245.831 270.469Z" fill="#CFCFCF" stroke="white"/>
<path fill-rule="evenodd" clip-rule="evenodd" d="M289.377 275.308L284.858 271.276L283.626 266.841L282.804 264.421L282.394 261.196L285.269 259.583L285.68 254.341L277.464 248.697L278.696 247.084V245.068L281.983 245.471L285.269 248.294L288.145 247.89L291.021 243.858L293.075 245.874L294.718 241.842L298.004 244.665L301.702 243.052L304.577 239.02L306.631 235.794L315.669 234.182L309.918 234.988L314.437 234.182H319.777L322.653 234.988L326.761 232.166L330.869 232.972L332.512 235.794L337.031 232.972L339.496 230.956H344.015L343.193 234.182L346.891 238.214V241.036L345.658 243.052L345.247 244.262L339.496 247.487L342.782 248.294L343.604 247.084L346.48 247.89L348.123 251.116L347.712 253.132L344.836 254.745L348.945 257.567L349.766 259.986L346.891 260.389L345.658 262.002L347.712 263.615V265.228V266.034L344.836 266.841L339.907 267.244L338.674 269.26L341.139 270.469L341.961 272.082L339.907 273.292L334.977 274.501L330.047 275.711L328.815 278.936L323.474 278.533L319.366 282.565V283.775L321.831 286.597L325.118 287.404L325.939 290.226L325.118 292.242L323.064 293.855C323.064 293.855 325.528 295.064 322.653 295.871C319.777 296.677 318.956 297.08 318.956 297.08L316.901 295.064L315.669 292.242L311.972 292.645L309.507 289.823H306.22L305.81 286.597L308.275 284.581L303.345 283.372L302.112 280.146L299.237 279.743L297.183 275.711L294.718 273.292L293.485 273.695L292.664 274.501L289.377 275.308Z" fill="#EA4715" stroke="white"/>
<path fill-rule="evenodd" clip-rule="evenodd" d="M304.577 237.407L301.291 236.198L300.88 233.375L298.004 234.585L297.183 230.553L293.485 228.537L291.431 225.715L291.02 221.683L293.896 218.86L290.199 216.844V214.425L291.842 214.828L293.485 212.409L288.966 210.796L288.145 212.409H284.037L281.161 209.587H277.464L279.107 207.571L277.464 205.958V201.926L274.588 201.523L272.945 197.088H271.712L272.123 195.475L271.712 191.846L268.015 189.427H272.534L273.356 187.411L274.999 192.249H277.053L277.875 188.62L279.107 186.604H281.161L282.804 183.379L279.107 179.75L281.572 178.541L280.75 176.121L282.393 173.299L284.447 168.461L287.734 168.864L288.966 170.073L295.95 165.638L298.415 169.267L309.096 169.67L310.328 168.461L313.615 170.073L318.955 165.638L319.366 167.654L318.134 168.057L317.723 175.718L319.366 177.331L318.545 178.137L316.08 178.541L315.258 180.556L318.545 181.363L316.901 183.379L316.491 187.411L318.545 191.04V196.684L323.474 197.894L326.761 201.12L334.566 201.523L336.62 204.748V208.377L338.263 211.603L339.907 208.377L341.961 207.974L343.604 210.796L342.371 214.022L339.496 214.828V218.86L341.55 220.07L344.015 220.473L347.301 221.683L348.944 223.699L350.177 225.311L347.712 228.134L344.426 230.553L339.907 230.956L332.923 235.391L331.69 233.375L326.761 232.166L323.063 234.585L320.188 234.182L314.437 234.585H309.507L304.577 237.407Z" fill="#CFCFCF" stroke="white"/>
<path fill-rule="evenodd" clip-rule="evenodd" d="M344.016 234.182V230.956L349.767 226.118L347.302 222.086L341.962 220.473L339.086 218.86L339.907 215.231L342.372 214.022L343.605 211.199L341.962 208.377L340.729 207.571L337.853 211.603L336.21 208.78L336.621 205.555L334.156 201.926L327.172 201.12L324.297 197.491L318.545 196.684V191.443L316.902 187.814V183.379L318.956 181.363L314.848 180.153L315.67 178.54L319.778 178.137L317.724 175.718L318.545 168.057L319.367 166.041L325.94 164.832H330.459L336.21 166.041L347.302 164.025L357.572 169.267L359.215 167.251L364.145 168.864L369.486 172.089H373.183L374.826 170.477L377.702 171.283L383.864 168.057V171.283L385.918 171.686L387.15 174.105L393.313 172.493L395.777 172.896L394.956 175.315L398.242 178.137L398.653 181.766L396.599 184.185V185.395L401.118 189.83L400.707 191.443L399.475 191.846V193.056L401.94 194.265V197.491L399.475 202.329V203.539L401.94 206.764L397.832 207.571L395.777 209.99L398.242 215.231L395.777 216.038L398.242 219.667L394.545 226.924L388.383 226.118L387.972 228.134L389.205 229.343L387.561 230.553L385.918 228.537H382.632L377.291 227.327L375.648 228.94L377.291 230.553L374.415 232.972L368.664 228.537L368.253 226.118L364.967 225.715L361.27 228.94L357.572 230.956L357.983 234.182L357.161 236.198L354.697 234.585L350.999 237.811L347.713 238.617L344.016 234.182Z" fill="#CFCFCF" stroke="white"/>
<path fill-rule="evenodd" clip-rule="evenodd" d="M394.134 226.924L398.653 219.264L395.777 215.635L398.242 215.232L396.188 209.587L399.063 207.168H402.35L399.063 203.136L401.939 198.297L402.35 194.265L399.063 192.249L401.117 190.233L397.009 185.395V183.782L398.653 182.169V178.137L395.366 175.315L395.777 173.299L393.312 171.283L394.544 169.267H395.777L399.474 170.477L401.939 167.654L414.263 168.057L421.658 166.848L424.534 169.267L426.998 166.042H433.571L438.09 167.654L441.788 172.089L443.431 171.686L445.074 172.896L446.717 172.089L449.593 173.702V175.718L451.647 176.121L456.577 178.541L459.863 179.347L461.096 178.137H462.739V181.363L467.258 182.573L471.366 184.992L470.544 187.411L472.187 191.04L475.885 192.249L474.241 194.265L477.939 194.669L479.582 197.088L479.171 203.136H477.528L475.885 202.329L473.42 204.749L468.49 204.345L461.506 203.136L457.398 204.345L454.112 206.361L456.987 209.587L456.577 212.409L452.879 219.264H450.004L443.842 220.07L442.198 216.844H440.144L439.733 219.667L438.09 224.908L433.982 228.134L431.928 228.94L426.998 230.15L424.944 228.537L422.479 230.15L419.604 229.747L418.371 227.731L415.496 229.344L413.442 227.328L410.977 230.15L407.69 234.585L401.117 234.988L399.885 232.166L395.777 231.763L397.42 229.344L394.134 226.924Z" fill="#CFCFCF" stroke="white"/>
<path fill-rule="evenodd" clip-rule="evenodd" d="M339.907 273.292L342.372 272.485L340.729 270.066L339.085 269.26L339.907 266.841L344.837 267.244L347.712 266.034V263.212L346.069 261.196L348.945 260.389L348.534 257.97L345.658 254.745L347.302 252.729L347.712 249.906L346.891 248.294L344.837 247.084L342.372 248.294L339.496 247.084L345.248 245.068L347.302 239.423L351.41 236.601L354.285 233.778L357.161 237.004L358.393 234.585L357.161 231.762L360.037 227.73L365.377 226.118H367.431L370.307 228.537L373.593 233.375L375.647 230.15V228.94L377.702 227.327L379.345 228.134L385.918 227.327L387.561 230.956L389.615 230.15L387.972 228.134V226.118L393.312 226.924L398.242 228.134L395.777 231.762L399.885 232.166L400.707 234.182L397.831 237.407L394.956 235.391L392.491 234.988L391.258 235.794L393.723 239.826L396.188 241.439H393.723L390.847 243.455L390.026 249.906L389.204 261.599L391.669 268.453L389.204 275.308L387.561 276.517V277.727L389.615 279.34V280.952L387.972 281.759V290.226L382.631 293.452L376.88 294.258L373.183 291.436H368.664L364.556 289.42H360.858L360.037 291.839L362.502 295.064L361.68 297.887L359.626 300.709L358.393 304.741L352.231 303.128V300.306L353.464 299.5L352.642 296.274L349.356 289.42L353.464 288.21L350.177 286.597V281.759L354.696 282.968V280.549L350.999 278.937L356.75 274.905V272.485L353.053 271.679L349.356 278.13L346.069 275.711L339.907 273.292Z" fill="#CFCFCF" stroke="white"/>
<path fill-rule="evenodd" clip-rule="evenodd" d="M388.793 276.114L391.669 268.454L388.793 262.002L390.847 243.455L393.312 241.843L397.831 242.246L394.544 240.633L390.436 235.795L392.49 234.585L395.366 234.988L398.242 237.811L400.706 234.585L406.869 234.988L413.442 226.924L415.496 228.94L417.96 227.731L419.193 229.747L423.301 230.15L424.944 228.537L426.588 230.15L432.339 228.94L438.09 225.715L440.144 217.248H442.198L443.431 220.473L449.182 219.264H453.29L452.469 222.086L451.236 224.908L448.36 230.15L447.128 237.407L440.966 241.439L440.144 248.697L442.198 251.519V253.939L439.323 259.583H433.982L425.766 258.374L422.479 259.18L425.766 262.002L426.588 265.228L424.533 266.034L423.712 264.018L423.301 262.406L420.836 262.002L417.96 264.825L419.604 266.438V275.308L417.55 277.727L416.728 285.791H413.852L411.798 281.356L408.512 278.534L410.155 276.921L406.869 277.727H403.171L401.939 275.308L399.474 275.711H399.885V283.372L401.528 285.791L399.474 287.404L397.42 286.597L396.188 284.582L392.49 282.162L388.793 276.114Z" fill="#CFCFCF" stroke="white"/>
<path fill-rule="evenodd" clip-rule="evenodd" d="M276.643 314.015L280.751 310.386L282.394 307.967L280.751 305.145H283.216L284.859 300.709V296.274L284.037 292.242L281.983 291.033L283.626 289.823L285.68 292.242L289.378 291.436H290.61L288.145 288.613L289.378 283.372L288.145 280.549V276.517L289.788 274.905L292.253 275.308L295.129 272.889L298.826 278.937L301.702 280.146L303.756 283.372L307.864 284.985L308.275 286.194L305.81 287.404L307.864 289.823L304.988 290.629L309.507 290.226L311.972 293.049L315.669 291.839L316.491 295.871L318.956 297.081L318.134 298.29L315.669 302.322L316.902 305.951L314.848 306.757L312.383 313.208L310.74 314.418L309.918 316.434L309.507 317.24L304.167 316.837L301.291 318.047H298.826V317.24L295.951 316.837L294.718 317.644L294.307 322.885L291.842 326.917L288.145 323.692L287.734 321.676L286.913 324.498L283.626 323.692L282.394 322.482L284.859 321.272L283.626 318.45L280.751 319.66L279.929 321.676L278.697 319.256L281.572 315.224L276.643 314.015Z" fill="#CFCFCF" stroke="white"/>
<path fill-rule="evenodd" clip-rule="evenodd" d="M262.675 343.448L258.978 337.803L268.426 334.578L263.496 322.885L264.729 320.063V316.434L267.605 308.773L270.069 309.579L270.48 307.563L275.41 313.611L281.161 316.031L278.286 318.853L279.107 321.272L283.626 318.45L285.269 320.466L282.394 323.288L286.502 324.498L291.431 326.111L291.021 327.723L289.788 331.352L286.913 333.771L286.091 337.4L283.215 336.594H281.161L280.34 339.416V343.448L274.999 345.867L272.945 347.883L270.891 350.302L267.605 349.899V347.48L264.729 349.496L262.264 347.48L262.675 343.448Z" fill="#CFCFCF" stroke="white"/>
<path fill-rule="evenodd" clip-rule="evenodd" d="M298.005 337.804L293.075 335.788V334.578L288.967 331.352L290.199 328.127L293.897 323.692L294.307 318.047L297.183 316.434L298.415 318.047H302.113L303.345 316.837L310.329 317.644V314.821L312.794 314.015L314.437 307.161L317.723 306.354L315.669 302.725L319.367 297.484L323.886 295.468L323.475 293.855L325.94 291.436L325.118 287.404L322.653 287.001L320.188 282.566L323.475 278.534L329.226 279.34L331.28 276.114L338.264 273.695L345.248 275.711L348.945 278.13L353.464 271.679L356.75 272.486V274.905L351.41 278.534L354.696 280.55V282.566L350.588 281.356L350.177 286.194L352.642 287.807L349.767 288.613L351.821 295.065L353.875 297.887V299.097L352.231 299.903V303.129V304.338L347.712 306.354L349.356 310.386L346.069 311.192L343.604 316.031L346.069 318.853L346.48 320.869L344.426 322.482L343.604 325.708L345.248 328.933L342.783 332.159L341.14 330.949H338.264L336.21 332.562L336.621 337.4L338.675 338.207L339.907 336.594L341.14 337.4V342.642H339.496L336.621 340.223L335.799 341.432L332.513 338.207V334.981H330.869L330.458 333.368L327.172 332.562L329.226 330.949L324.707 327.32L318.134 326.917L315.259 329.336H310.329L308.275 329.74L309.096 332.965L305.399 333.772L300.88 330.546L298.415 332.159L298.826 333.368L300.059 334.578L298.005 337.804Z" fill="#CFCFCF" stroke="white"/>
<path fill-rule="evenodd" clip-rule="evenodd" d="M272.768 351.572L273.64 353.425L275.092 355.848L275.818 360.267L281.483 357.844L286.857 356.418L284.388 351.857L281.773 347.438L276.545 347.723L272.768 351.572ZM254.903 368.82L265.361 371.101L264.199 376.803L254.903 368.82ZM232.246 359.127L233.989 352.855L237.474 354.565L239.798 351.714V346.582L242.703 340.31L248.513 342.021L254.323 346.012L252.58 351.714L256.065 352.284L257.808 346.012L264.78 350.574L270.59 351.714L271.752 354.565L274.076 356.276V360.267L273.495 363.689L270.59 368.25L269.428 372.812L265.361 368.25H257.808L251.999 366.54H247.351L242.122 365.399L232.246 359.127Z" fill="#CFCFCF" stroke="white"/>
<path fill-rule="evenodd" clip-rule="evenodd" d="M289.471 352.142L293.102 345.584L294.409 343.589L292.667 340.738L293.248 335.891L297.895 337.887L299.929 334.893L298.912 333.182L298.621 331.899L300.51 330.759L305.303 333.895L308.934 332.897L308.498 329.904L310.677 329.334L315.47 329.476L318.084 327.053L324.33 327.48L323.313 327.195L326.944 329.191L329.123 331.044L327.38 332.47L330.43 333.468L331.011 334.893H332.608L332.318 338.029L335.659 341.165L336.385 342.591L336.239 346.297L337.256 348.721L340.597 352.142L340.451 354.423L342.485 355.135L341.468 355.991L341.613 357.701L345.825 360.98L348.004 367.965L350.183 374.95L353.814 376.376L350.038 379.084L350.328 380.51L353.233 382.078L352.071 383.076L351.926 384.359L352.942 386.497L353.814 387.637L353.523 389.063L354.104 400.039L355.557 401.892L357.154 405.029L356.719 408.592L353.523 410.446L349.457 408.307L345.971 408.45L340.742 407.737L338.128 406.026L335.513 405.884L332.463 407.594L331.446 406.882H328.542L324.765 405.029L322.877 401.75L322.732 402.035L320.408 401.892L318.81 399.612L321.57 398.899L323.313 396.475L323.022 391.486L324.911 388.35L322.732 386.354L322.296 383.218L319.682 380.082L318.52 377.516L314.163 374.38L313.582 371.529L310.531 369.533L309.369 363.974L303.56 362.406L299.348 365.969L297.75 364.972L296.152 368.25H294.409L290.488 366.112V363.403H290.343L288.454 361.408L285.695 358.699L288.019 357.416L287.873 354.708L289.471 352.142ZM283.371 342.733L282.935 346.582L285.404 349.718L286.131 351.572L287.728 351.287L289.907 348.008L292.376 343.874L291.214 340.88L291.359 337.459L289.011 334.706L286.566 339.312L282.645 338.314L282.5 341.308L283.371 342.733Z" fill="#EA4715" stroke="white"/>
<path fill-rule="evenodd" clip-rule="evenodd" d="M278.697 415.217L274.589 408.363L272.945 404.331L274.999 398.686L277.875 393.848L281.572 389.816L282.805 385.784L281.162 382.558V379.736L278.286 378.123L275.41 377.317V374.494L272.945 373.285L274.999 369.253L275.821 365.221L276.232 361.995L280.34 360.786L283.216 359.576L285.68 359.173L290.199 363.205L290.61 366.027L295.129 368.043L297.183 365.221L298.826 366.834L302.934 361.592L309.918 363.608L310.74 368.85L314.437 371.269L314.848 374.898L318.956 378.526L322.653 383.365L322.242 386.187L325.529 389.009L323.064 391.429L323.475 396.67L322.242 399.493H319.367L317.724 400.299L315.259 398.686L310.74 399.089L308.686 395.864H306.632L304.167 397.073L302.934 401.105L302.113 403.928L296.361 405.944H294.307L290.199 408.363H289.378L288.145 405.944H286.913L285.68 407.557L285.27 411.589V413.605L282.805 416.427L278.697 415.217Z" fill="#EA4715" stroke="white"/>
<path fill-rule="evenodd" clip-rule="evenodd" d="M281.983 416.024L283.215 420.056L288.556 422.072L289.377 425.297L291.021 428.523L296.361 432.958L298.415 440.619L302.112 449.086L303.756 455.537L311.15 462.795L313.615 467.23L319.366 469.246L325.939 464.407L324.707 458.763L320.188 451.505L320.599 449.086L314.026 439.409L313.615 432.958L317.723 430.942L318.956 426.104V419.249L314.848 416.427L309.918 414.411L309.507 412.798L312.794 411.589L311.15 408.766L313.204 409.169L317.312 399.896L314.848 398.686H310.739L309.096 395.461L304.577 396.267L302.112 404.331L295.54 406.347L294.718 405.541L289.377 408.363L287.734 405.944H286.502L285.269 407.153V414.814L281.983 416.024Z" fill="#CFCFCF" stroke="white"/>
<path fill-rule="evenodd" clip-rule="evenodd" d="M202.697 512.388L201.875 506.34L199.41 503.115L199.821 497.067L203.107 491.422L202.286 487.793V482.148L205.161 478.923H206.805L204.751 476.907L199.821 469.246L205.572 472.472L209.27 475.697L208.859 472.068L207.216 467.633L209.27 464.811L207.216 459.166V453.118L205.572 451.505L199.821 450.699L199.41 446.264L205.983 443.844V436.99L205.572 435.377L206.394 434.168L206.805 431.345L212.967 432.152L215.021 429.329H215.432L218.307 432.958L217.897 436.99H219.951L222.415 440.619H224.88L225.702 443.038L231.864 444.248L234.74 445.054L234.329 447.07L232.686 447.473V449.489L229.81 451.505L228.988 454.731L224.469 457.553L226.934 459.972V463.198L222.826 464.004V472.068L229.399 473.278L230.221 474.084L229.399 476.1L225.291 480.132L222.826 478.116L220.772 479.326L218.307 478.116L218.718 482.955L216.253 486.583L216.664 489.809L219.129 488.599L219.951 493.438L218.718 495.857L217.486 501.502L214.61 506.743L211.734 507.147L206.805 512.388H202.697Z" fill="#CFCFCF" stroke="white"/>
<path fill-rule="evenodd" clip-rule="evenodd" d="M219.129 488.599L217.075 490.212L216.253 486.986L219.129 483.358L217.897 477.31L220.362 479.729L223.237 478.116L224.88 479.729L229.81 476.503L230.221 474.084L223.648 472.068L223.237 464.407L227.345 463.198V460.375L224.47 457.15L228.988 454.731L229.399 451.505L233.097 449.489L232.686 448.279L234.74 447.473L235.151 445.457L232.275 443.844L235.151 441.425L236.794 440.619L237.616 443.038H240.08L241.724 442.231L245.01 445.86L243.778 447.473L243.367 449.489L244.188 450.699H246.653L247.886 452.715L254.87 453.924L255.28 455.537L253.226 455.94L251.994 457.956L256.513 458.763L256.924 460.779L253.226 461.585C253.226 461.585 254.048 464.004 252.405 464.004C250.761 464.004 249.118 462.391 249.118 462.391L247.886 464.004L245.421 463.601L244.188 466.02L243.367 468.439L240.491 469.649L235.972 472.471L233.097 474.487L232.686 477.31L231.864 482.148L228.578 484.164L226.934 487.793L224.88 490.212L219.129 488.599Z" fill="#CFCFCF" stroke="white"/>
<path fill-rule="evenodd" clip-rule="evenodd" d="M233.097 473.681L238.437 470.858L243.778 468.439L245.421 464.004H247.886L248.707 462.795L253.637 464.004L254.459 461.182H257.334L256.924 458.762L251.994 457.956L253.226 455.537L255.28 455.94L254.87 453.924L248.297 453.118L246.653 451.102L243.367 450.699L243.778 448.279L245.421 447.07L241.724 442.635H238.848L237.205 440.619L231.864 443.844L225.291 442.635L224.881 441.022H223.237L220.772 436.99H217.897L218.308 432.958L215.843 429.732V424.894L219.54 420.862L219.951 418.846L223.648 416.83L224.47 414.814L228.167 414.411V409.572L233.097 409.976L234.74 407.556L236.794 408.363L236.383 418.04L242.135 420.459L245.421 419.652L247.475 418.443L249.94 420.056L251.172 417.233L256.102 414.814L261.853 416.024L267.605 419.249L271.713 422.878L276.642 424.894L281.572 426.91L285.269 430.135L287.734 435.78L285.269 438.603L281.161 440.619L274.178 445.457L270.48 449.086L270.07 451.908L265.14 452.715L268.015 457.15L266.783 460.375L267.194 464.004L268.837 466.423L263.907 466.826L259.388 469.246V472.068L258.567 474.89L255.691 474.084L253.226 473.681L247.886 471.262L245.01 472.874L244.599 474.89L239.67 476.906L239.259 473.278L233.097 473.681Z" fill="#CFCFCF" stroke="white"/>
<path fill-rule="evenodd" clip-rule="evenodd" d="M233.988 473.168L239.798 473.739L239.217 476.59L245.027 474.879V473.739L248.513 471.458L252.579 473.168L251.417 477.73L247.351 478.3L243.284 484.002L245.027 488.564L243.865 491.985L238.055 493.126L235.731 497.117L235.15 501.679L236.893 503.96L242.122 498.828L245.027 497.687L247.351 498.828L257.227 499.398L257.808 503.389L251.998 509.092L250.256 512.513L254.322 514.794V518.215L250.256 525.057L246.77 529.049V537.602L240.96 544.444L241.541 550.717L236.312 552.427L231.664 555.278L226.436 554.138L222.369 550.717L214.816 549.006L216.559 546.155L214.235 543.304C214.235 543.304 211.911 537.032 214.816 537.032C217.721 537.032 221.788 534.751 221.788 534.751L217.721 533.04L213.654 532.47L214.235 526.768L217.14 523.347L215.397 520.496L213.654 524.487L210.749 525.057L210.168 529.049L211.911 530.759L209.006 534.181L204.359 526.768L203.197 521.066V513.083L209.006 510.232L211.911 506.811L214.235 507.951L218.302 499.398L220.045 494.836L218.883 489.704L224.693 490.275L228.76 485.143L232.245 482.862L232.826 478.3L233.988 473.168Z" fill="#CFCFCF" stroke="white"/>
<path fill-rule="evenodd" clip-rule="evenodd" d="M272.333 535.891L267.104 541.023L265.361 546.155L270.009 548.436L273.495 544.444L272.333 540.453V535.891ZM265.942 526.198L271.171 522.776L272.914 526.198L272.333 530.189L268.847 534.181L265.942 537.032V530.759V526.198ZM254.323 523.347L260.132 526.198L263.037 529.049L263.618 533.61L261.875 538.742L258.97 542.734L252.58 539.883L250.837 543.874L249.094 549.576L245.027 551.287L246.189 545.015L248.513 540.453V535.321L250.837 530.759L254.323 523.347ZM252.58 520.496L253.742 514.793L249.675 512.513L256.065 505.67L257.808 503.96L256.646 499.398L247.932 499.968L245.027 498.257L236.893 502.819L235.731 499.968L236.312 494.266L243.865 492.555L245.027 489.134L242.703 484.002L247.351 478.87L250.837 478.3L252.58 473.739L257.808 474.309L259.551 469.177L267.685 466.896L268.266 462.905L272.333 466.896L275.819 471.458L275.238 477.16L279.885 478.87L282.79 487.994L278.723 490.275V495.406L275.238 502.249L272.914 508.521L271.752 511.942L272.914 519.925L262.456 523.347L252.58 520.496Z" fill="#CFCFCF" stroke="white"/>
<path fill-rule="evenodd" clip-rule="evenodd" d="M286.276 531.33L284.533 535.891H290.342L286.276 531.33ZM315.324 489.134L313 496.547L310.095 505.1V513.083L315.905 519.355V511.943V504.53L318.81 497.117L319.391 493.126L315.324 489.134ZM274.075 515.934L279.304 510.232L283.952 503.39L284.533 493.126L283.952 485.713L281.628 479.441L279.304 473.169V466.896L275.237 463.475L271.17 458.913L271.751 453.781L275.237 448.079L280.466 445.228L282.79 442.377L290.923 441.807L292.666 448.079L296.152 460.624L301.962 467.466L306.029 472.598L308.353 476.02L307.772 482.292L306.029 484.002V491.415L303.705 496.547L302.543 500.538L301.381 505.67V510.802V514.794L297.314 517.645L294.99 522.206L288.019 524.487L287.438 527.908L283.952 529.619L279.304 532.47C279.304 532.47 277.561 531.9 277.561 529.619C277.561 527.338 275.818 524.487 275.818 524.487L278.723 520.496L274.075 515.934ZM277.561 539.883L280.466 535.891L283.952 540.453L281.628 542.734L277.561 539.883Z" fill="#CFCFCF" stroke="white"/>
<path fill-rule="evenodd" clip-rule="evenodd" d="M321.01 473.278L331.691 474.084L334.977 481.342L335.799 487.793L339.085 491.825L338.264 500.695L336.62 509.565L330.869 513.597L325.939 519.242L323.474 518.436L324.296 510.372L325.118 501.501L325.939 493.438L325.118 485.374L321.01 473.278ZM351.409 469.246L343.193 466.827V460.375V456.343L349.766 459.569L352.231 463.601L351.409 469.246ZM336.62 445.054L347.301 445.86L352.231 449.892L351.409 454.731L344.015 451.505L336.62 445.054ZM322.653 449.892H331.691L335.799 454.731L339.085 460.375L336.62 465.214L330.869 467.633L326.761 466.827L325.939 459.569L322.653 449.892ZM314.437 432.152L317.723 428.12L319.366 421.668L316.08 417.636L310.329 413.604L311.15 409.572L316.08 400.702L322.653 403.121L329.226 408.766L335.799 406.347L339.907 407.153L348.945 409.572L349.766 412.798L348.945 416.83V420.056L346.48 427.313L353.874 426.507H357.982L354.696 431.345V435.377L356.339 441.022L351.409 438.603L346.48 440.215L337.442 439.409L332.512 436.183L330.047 439.409C330.047 439.409 327.583 441.828 324.296 440.215C321.01 438.603 315.258 432.958 314.437 432.152Z" fill="#CFCFCF" stroke="white"/>
<path fill-rule="evenodd" clip-rule="evenodd" d="M356.573 439.526L354.249 436.105L354.83 432.684L358.316 426.411L354.249 426.982L349.021 425.841L347.278 427.552L348.44 422.99L347.859 418.999L349.021 415.578L347.278 408.735L353.669 410.446L357.154 407.595L360.64 408.735L362.964 406.454L361.221 401.322L360.059 397.901V394.48L361.221 389.918L361.802 385.927L367.031 387.067L370.517 392.769L374.003 399.612L375.164 404.744V409.305L379.231 415.007L378.65 418.999L383.298 420.709L376.907 421.28L377.488 427.552H372.841L369.355 429.833L367.612 434.965L363.545 440.667V444.658L361.221 443.518V440.667L356.573 439.526Z" fill="#CFCFCF" stroke="white"/>
<path fill-rule="evenodd" clip-rule="evenodd" d="M405.956 505.67L402.47 503.39L401.308 496.547L400.728 490.275V487.994L396.661 481.722L393.756 473.739L389.108 469.747L385.622 464.616L383.298 460.054V458.343L380.974 455.492L378.07 453.211L369.355 446.939L371.098 444.088L367.031 440.097L367.612 436.675L369.355 429.833L375.165 427.552H377.489L378.07 421.85H382.717L386.784 422.99L389.108 420.139L396.08 418.429L399.566 420.139L400.728 423.561L398.404 427.552L401.308 431.543L404.213 437.246L407.118 442.377L409.442 446.369V441.807H414.09L416.414 443.518V448.65L420.481 449.22L421.642 454.922L422.223 461.194L423.966 465.756L423.385 469.747L427.452 472.598L428.614 469.747L429.195 466.896L427.452 464.616L428.033 459.484L432.681 457.773L437.329 462.905L441.395 472.598L442.557 479.441L438.491 486.854L444.881 491.415L443.719 495.977L443.138 498.828L444.881 505.67L445.462 508.521V511.373L447.205 514.224L446.043 517.645L447.205 523.347L450.691 530.189L448.948 533.611L447.205 535.891L448.948 539.883L444.881 541.023L441.395 539.883L442.557 536.462H437.329L433.843 539.883L427.452 541.023L423.966 544.445L418.157 547.866L416.995 543.304L419.9 539.313L415.252 535.321V530.189L411.766 525.628L410.604 517.645L407.699 514.794L405.956 505.67ZM355.993 454.922L359.478 461.194L361.802 464.616V466.896L360.64 467.467L359.478 473.169L361.221 479.441L366.45 485.143L369.936 486.854V490.275L370.517 491.415H375.165L378.07 487.994L379.232 484.573V481.152L378.07 477.73L368.774 462.335L368.193 458.913L355.993 454.922ZM352.507 443.518L357.736 445.228L358.898 449.22L357.155 449.79L352.507 443.518Z" fill="#CFCFCF" stroke="white"/>
<path fill-rule="evenodd" clip-rule="evenodd" d="M421.247 452.312L426.998 445.054V439.409L429.463 431.345L440.966 423.281L437.68 407.96L445.896 403.928L444.252 396.67L440.144 386.187L441.788 379.736L436.036 374.091L444.252 364.414L434.393 342.642L429.463 343.448L423.712 333.771H421.247L417.961 336.997L421.247 350.706L422.89 359.576L420.425 362.802V367.64L415.496 366.027L409.744 370.866L403.993 380.542L401.528 387.8L405.636 395.058L406.358 405.256L405.346 407.862L402.35 407.96V410.379L395.777 418.443L400.707 422.475L399.063 425.701L399.885 428.926L404.815 439.409L409.744 445.86L410.566 442.635L416.317 443.441L417.139 448.28L421.247 452.312Z" fill="#CFCFCF" stroke="white"/>
<path fill-rule="evenodd" clip-rule="evenodd" d="M417.139 548.273L426.177 543.434L430.285 540.209L434.393 539.402L440.144 549.079L446.717 552.305L449.182 551.498L450.825 547.466L454.933 553.111V555.53H450.825L450.004 561.175H442.609L439.323 565.207L442.609 573.271L449.182 579.722L446.717 583.754L450.825 590.205L454.112 594.237L452.468 599.882H449.182L448.36 596.656L442.609 603.107L444.252 610.365L447.539 616.01L448.36 621.655L446.717 625.687L448.36 632.138L454.112 639.395V644.234L454.933 650.685L459.041 663.587L462.328 671.651L461.506 675.683L459.041 673.264L455.755 664.393L451.647 659.555L448.36 653.91L445.896 648.266V643.427L431.928 627.299L430.285 614.397V608.752L427.82 603.107L422.89 596.656L422.069 593.431L426.177 588.592L426.998 582.948L428.642 578.109L430.285 570.852L429.463 561.981L426.177 569.239L422.069 566.82L425.355 572.464L427.82 578.916L423.712 586.98L424.533 587.786L416.317 586.98L417.139 591.012H412.209L411.388 586.98L413.852 579.722L415.496 573.271L411.388 570.045L417.139 548.273ZM405.636 541.015L413.852 539.402L415.496 547.466L413.031 554.724L408.101 562.788L408.923 557.143L409.744 545.854L405.636 541.015ZM456.989 687.245C456.564 685.552 457.197 684.875 455.696 683.379C453.674 681.363 456.041 681.123 457.635 681.123C458.229 681.123 457.036 687.126 456.989 687.245Z" fill="#CFCFCF" stroke="white"/>
<path fill-rule="evenodd" clip-rule="evenodd" d="M450.004 548.273L446.717 552.305L440.966 549.885L439.323 546.66L434.393 539.402L436.858 536.177H440.966L442.609 539.402L448.361 540.209V536.983L450.825 530.532L448.361 526.5L446.717 518.436L445.896 514.404L444.252 506.34L442.609 500.695L444.252 492.631L449.182 494.244L454.112 491.825H462.328L467.258 495.05L474.652 499.082L478.76 507.953L482.869 519.242L481.225 522.468L486.155 532.951L491.085 546.66L491.906 550.692L491.085 559.562V565.207L490.263 571.658L491.085 579.722L493.55 588.592L494.371 597.463L495.193 604.72L499.301 611.978L495.193 613.591L491.085 618.429L488.62 616.816L487.798 612.784L485.333 607.139L486.155 603.914L483.69 603.107L481.225 604.72L477.117 605.527L472.188 603.914L471.366 600.688L468.079 592.624L465.615 591.011L462.328 595.043L460.685 598.269L457.398 597.463L453.29 604.72L450.825 605.527L448.361 608.752L449.182 615.203L446.717 620.848L445.896 612.784L443.431 606.333L442.609 603.107L447.539 597.463L450.825 600.688L453.29 595.85L450.004 589.399L446.717 583.754L448.361 580.528L444.252 576.496L442.609 571.658L440.144 565.207L444.252 561.175H450.825V556.336H454.934V553.917L450.004 548.273Z" fill="#CFCFCF" stroke="white"/>
<path fill-rule="evenodd" clip-rule="evenodd" d="M422.069 460.375L420.425 452.311L424.533 447.473L427.82 441.828L428.641 432.152L440.966 423.281L440.144 418.443L438.501 409.573L445.895 403.928L444.252 397.477L441.787 386.994V381.349L436.036 373.285L443.431 363.608L440.144 355.544L434.393 341.029L436.036 338.61L442.609 332.159H446.717L449.182 336.191L450.825 342.642L452.468 336.997L454.112 333.771L458.22 335.384L455.755 341.029L457.398 346.674L459.041 350.706L460.685 365.221L464.793 370.866L467.257 375.704L465.614 378.93L468.079 381.349L468.901 384.574L463.149 388.606L463.971 395.058L464.793 400.702L465.614 404.734L468.901 408.766L466.436 421.669L469.722 428.12L476.295 431.345L474.652 435.377L477.117 445.054L482.047 449.892L482.868 456.343L484.511 464.407L482.047 466.02L484.511 474.084L486.155 483.761L487.798 491.825V496.663L489.441 503.114L491.084 509.566V516.823L486.976 515.21L489.441 524.081L492.728 536.983L495.192 545.047L491.906 550.692L490.263 546.66L487.798 539.402L485.333 531.338L481.225 523.274L482.047 520.855L480.403 514.404L477.117 503.114L473.83 499.889L465.614 494.244L454.933 491.825L447.539 495.05L442.609 491.018L439.323 486.18L441.787 479.729L440.966 473.278L436.858 465.214L431.928 457.956L429.463 458.763L426.177 463.601L428.641 470.052L426.998 473.278L423.712 469.246L422.069 460.375Z" fill="#CFCFCF" stroke="white"/>
<path d="M117.351 572.579C116.984 572.261 116.836 572.012 116.836 571.714C116.836 571.184 117.038 571.185 117.575 571.718C117.862 572.001 118.001 572.285 118.001 572.583C118.001 572.828 117.971 573.027 117.933 573.027C117.896 573.027 117.634 572.826 117.351 572.58V572.579Z" fill="#CFCFCF"/>
</svg>
