<svg width="94" height="24" viewBox="0 0 94 24" fill="none" xmlns="http://www.w3.org/2000/svg">
<path d="M0.272 23V0.599998H3.632V20.024H16.528V23H0.272ZM29.3813 23.352C27.7599 23.352 26.2453 23.064 24.8372 22.488C23.4292 21.8907 22.1812 21.0693 21.0932 20.024C20.0266 18.9573 19.1946 17.7307 18.5972 16.344C18.0212 14.936 17.7332 13.4213 17.7332 11.8C17.7332 10.1787 18.0212 8.67467 18.5972 7.288C19.1946 5.88 20.0266 4.65333 21.0932 3.608C22.1812 2.54133 23.4292 1.72 24.8372 1.144C26.2453 0.546666 27.7599 0.247999 29.3813 0.247999C31.0026 0.247999 32.5173 0.546666 33.9253 1.144C35.3546 1.72 36.6026 2.54133 37.6693 3.608C38.7359 4.65333 39.5679 5.88 40.1653 7.288C40.7626 8.67467 41.0613 10.1787 41.0613 11.8C41.0613 13.4213 40.7626 14.936 40.1653 16.344C39.5679 17.7307 38.7359 18.9573 37.6693 20.024C36.6026 21.0693 35.3546 21.8907 33.9253 22.488C32.5173 23.064 31.0026 23.352 29.3813 23.352ZM29.4132 20.248C30.5652 20.248 31.6319 20.0347 32.6133 19.608C33.6159 19.1813 34.4906 18.5947 35.2372 17.848C35.9839 17.08 36.5706 16.184 36.9972 15.16C37.4239 14.1147 37.6373 12.9947 37.6373 11.8C37.6373 10.584 37.4239 9.464 36.9972 8.44C36.5706 7.416 35.9839 6.53067 35.2372 5.784C34.4906 5.016 33.6159 4.41867 32.6133 3.992C31.6319 3.56533 30.5652 3.352 29.4132 3.352C28.2399 3.352 27.1519 3.56533 26.1493 3.992C25.1466 4.41867 24.2719 5.016 23.5252 5.784C22.7786 6.53067 22.1919 7.416 21.7652 8.44C21.3599 9.464 21.1572 10.584 21.1572 11.8C21.1572 12.9947 21.3599 14.1147 21.7652 15.16C22.1919 16.184 22.7786 17.08 23.5252 17.848C24.2719 18.5947 25.1466 19.1813 26.1493 19.608C27.1519 20.0347 28.2399 20.248 29.4132 20.248ZM55.9915 23.352C54.3488 23.352 52.8128 23.0533 51.3835 22.456C49.9755 21.8587 48.7382 21.0373 47.6715 19.992C46.6048 18.9253 45.7728 17.6987 45.1755 16.312C44.5782 14.904 44.2795 13.4 44.2795 11.8C44.2795 10.2 44.5675 8.70667 45.1435 7.32C45.7408 5.912 46.5728 4.68533 47.6395 3.64C48.7062 2.57333 49.9435 1.74133 51.3515 1.144C52.7595 0.546666 54.2848 0.247999 55.9275 0.247999C57.6982 0.247999 59.3728 0.589333 60.9515 1.272C62.5302 1.95467 63.8635 2.904 64.9515 4.12L62.6475 6.36C61.8368 5.4 60.8342 4.664 59.6395 4.152C58.4662 3.61867 57.2288 3.352 55.9275 3.352C54.7542 3.352 53.6662 3.56533 52.6635 3.992C51.6822 4.41867 50.8182 5.016 50.0715 5.784C49.3248 6.53067 48.7382 7.416 48.3115 8.44C47.9062 9.464 47.7035 10.584 47.7035 11.8C47.7035 12.9947 47.9062 14.1147 48.3115 15.16C48.7382 16.184 49.3248 17.08 50.0715 17.848C50.8395 18.616 51.7248 19.2133 52.7275 19.64C53.7302 20.0667 54.8182 20.28 55.9915 20.28C57.3142 20.28 58.5088 20.0027 59.5755 19.448C60.6635 18.8933 61.5488 18.136 62.2315 17.176C62.9142 16.1947 63.3302 15.096 63.4795 13.88H56.0235V10.936H66.9995V12.088C66.9995 13.688 66.7222 15.1707 66.1675 16.536C65.6128 17.9013 64.8342 19.096 63.8315 20.12C62.8502 21.144 61.6875 21.944 60.3435 22.52C58.9995 23.0747 57.5488 23.352 55.9915 23.352ZM81.8487 23.352C80.2274 23.352 78.7127 23.064 77.3047 22.488C75.8967 21.8907 74.6487 21.0693 73.5607 20.024C72.4941 18.9573 71.6621 17.7307 71.0647 16.344C70.4887 14.936 70.2007 13.4213 70.2007 11.8C70.2007 10.1787 70.4887 8.67467 71.0647 7.288C71.6621 5.88 72.4941 4.65333 73.5607 3.608C74.6487 2.54133 75.8967 1.72 77.3047 1.144C78.7127 0.546666 80.2274 0.247999 81.8487 0.247999C83.4701 0.247999 84.9847 0.546666 86.3927 1.144C87.8221 1.72 89.0701 2.54133 90.1367 3.608C91.2034 4.65333 92.0354 5.88 92.6327 7.288C93.2301 8.67467 93.5287 10.1787 93.5287 11.8C93.5287 13.4213 93.2301 14.936 92.6327 16.344C92.0354 17.7307 91.2034 18.9573 90.1367 20.024C89.0701 21.0693 87.8221 21.8907 86.3927 22.488C84.9847 23.064 83.4701 23.352 81.8487 23.352ZM81.8807 20.248C83.0327 20.248 84.0994 20.0347 85.0807 19.608C86.0834 19.1813 86.9581 18.5947 87.7047 17.848C88.4514 17.08 89.0381 16.184 89.4647 15.16C89.8914 14.1147 90.1047 12.9947 90.1047 11.8C90.1047 10.584 89.8914 9.464 89.4647 8.44C89.0381 7.416 88.4514 6.53067 87.7047 5.784C86.9581 5.016 86.0834 4.41867 85.0807 3.992C84.0994 3.56533 83.0327 3.352 81.8807 3.352C80.7074 3.352 79.6194 3.56533 78.6167 3.992C77.6141 4.41867 76.7394 5.016 75.9927 5.784C75.2461 6.53067 74.6594 7.416 74.2327 8.44C73.8274 9.464 73.6247 10.584 73.6247 11.8C73.6247 12.9947 73.8274 14.1147 74.2327 15.16C74.6594 16.184 75.2461 17.08 75.9927 17.848C76.7394 18.5947 77.6141 19.1813 78.6167 19.608C79.6194 20.0347 80.7074 20.248 81.8807 20.248Z" fill="white"/>
</svg>
