<svg width="16" height="16" viewBox="0 0 16 16" fill="none" xmlns="http://www.w3.org/2000/svg">
<path d="M11.4992 16C10.9827 16 10.4706 15.9087 9.96984 15.7268C7.76374 14.9254 5.716 13.6201 4.04793 11.9521C2.37987 10.284 1.0746 8.23629 0.273226 6.03019C0.0157045 5.32122 -0.0602927 4.58937 0.0474221 3.8549C0.148325 3.16693 0.414815 2.49905 0.818113 1.92345C1.22319 1.34532 1.76324 0.864465 2.37984 0.532884C3.03738 0.179305 3.75507 0 4.51304 0C4.74878 0 4.95253 0.164712 5.00193 0.395203L5.78671 4.05752C5.82224 4.22336 5.77128 4.39591 5.65138 4.51585L4.31039 5.85679C5.57541 8.37188 7.62809 10.4245 10.1432 11.6896L11.4841 10.3486C11.6041 10.2287 11.7767 10.1778 11.9425 10.2132L15.6048 10.998C15.8353 11.0474 16 11.2512 16 11.4869C16 12.2449 15.8207 12.9626 15.4671 13.6201C15.1355 14.2367 14.6546 14.7768 14.0765 15.1818C13.5009 15.5851 12.8331 15.8516 12.145 15.9525C11.9295 15.9842 11.7139 16 11.4992 16ZM4.11356 1.02183C3.11375 1.1322 2.22634 1.65624 1.63705 2.4973C0.974388 3.44305 0.819863 4.60628 1.2131 5.6888C2.75379 9.93006 6.06995 13.2462 10.3112 14.7869C11.3937 15.1801 12.557 15.0256 13.5027 14.3629C14.3438 13.7737 14.8679 12.8863 14.9782 11.8864L11.9989 11.248L10.5985 12.6485C10.4495 12.7975 10.223 12.8371 10.0323 12.7475C7.05776 11.35 4.64997 8.94226 3.25252 5.96769C3.16293 5.77698 3.2025 5.55055 3.35152 5.40156L4.75197 4.00112L4.11356 1.02183Z" fill="white" fill-opacity="0.5"/>
</svg>
