<svg width="16" height="17" viewBox="0 0 16 17" fill="none" xmlns="http://www.w3.org/2000/svg">
<path d="M15.8177 15.4381L11.913 11.5334C12.8835 10.3662 13.4683 8.86744 13.4683 7.23438C13.4683 3.52103 10.4474 0.5 6.73419 0.5C3.02093 0.5 0 3.52103 0 7.23438C0 10.9475 3.02093 13.9683 6.73419 13.9683C8.36716 13.9683 9.86602 13.3836 11.0332 12.413L14.938 16.3178C15.0595 16.4393 15.2187 16.5 15.3779 16.5C15.537 16.5 15.6963 16.4393 15.8178 16.3178C16.0607 16.0748 16.0607 15.681 15.8177 15.4381ZM1.24414 7.23438C1.24414 4.20705 3.70695 1.74414 6.73419 1.74414C9.76134 1.74414 12.2241 4.20705 12.2241 7.23438C12.2241 10.2615 9.76134 12.7241 6.73419 12.7241C3.70695 12.7241 1.24414 10.2615 1.24414 7.23438Z" fill="white"/>
</svg>
